<?xml version="1.0" standalone="no"?>
<!DOCTYPE svg PUBLIC "-//W3C//DTD SVG 20010904//EN"
 "http://www.w3.org/TR/2001/REC-SVG-20010904/DTD/svg10.dtd">
<svg version="1.0" xmlns="http://www.w3.org/2000/svg"
 width="872.000000pt" height="872.000000pt" viewBox="0 0 872.000000 872.000000"
 preserveAspectRatio="xMidYMid meet">

<g transform="translate(0.000000,872.000000) scale(0.100000,-0.100000)"
fill="#000000" stroke="none">
<path d="M1461 7238 c-48 -33 -69 -65 -80 -122 -6 -31 -16 -53 -27 -59 -11 -6
-35 -27 -54 -48 -46 -51 -71 -76 -109 -109 -26 -24 -31 -36 -31 -73 0 -55 28
-94 73 -102 58 -9 703 -34 728 -28 67 17 104 83 79 143 -20 49 -55 70 -116 70
-43 0 -56 4 -68 22 -9 12 -16 30 -16 39 0 25 -55 79 -79 79 -29 0 -61 35 -61
66 0 34 -34 94 -68 119 -16 12 -47 21 -82 23 -45 3 -61 0 -89 -20z"/>
<path d="M4277 6932 c-15 -16 -17 -54 -17 -328 0 -336 2 -346 53 -346 58 0 57
-4 57 339 0 198 -4 322 -10 334 -14 25 -61 25 -83 1z"/>
<path d="M2984 6585 c-14 -22 -15 -30 -5 -53 26 -57 295 -518 309 -529 39 -32
102 8 85 53 -11 29 -293 517 -311 537 -22 25 -59 21 -78 -8z"/>
<path d="M5578 6598 c-28 -21 -318 -532 -318 -559 0 -55 65 -69 98 -21 52 76
302 521 302 539 0 23 -29 53 -51 53 -9 0 -22 -6 -31 -12z"/>
<path d="M3685 6556 c-15 -23 -14 -34 25 -183 23 -87 47 -164 52 -170 17 -22
66 -16 82 10 14 21 12 36 -25 177 -23 85 -48 163 -57 173 -22 25 -59 21 -77
-7z"/>
<path d="M4866 6558 c-17 -27 -86 -284 -86 -320 0 -13 5 -29 12 -36 16 -16 63
-15 77 2 13 15 91 296 91 326 0 48 -68 67 -94 28z"/>
<path d="M2666 5974 c-35 -35 -21 -62 96 -181 62 -63 122 -116 134 -119 36 -9
64 12 64 49 0 29 -15 48 -118 150 -121 119 -145 133 -176 101z"/>
<path d="M5791 5868 c-80 -80 -121 -129 -121 -143 0 -31 34 -59 62 -52 29 8
258 238 258 260 0 23 -36 57 -59 57 -10 0 -71 -53 -140 -122z"/>
<path d="M4115 5924 c-545 -79 -1006 -407 -1244 -889 -94 -189 -148 -380 -166
-587 l-7 -78 -489 0 -489 0 -16 -25 c-15 -23 -15 -27 0 -50 13 -20 25 -25 59
-26 203 -5 5100 -3 5126 2 47 10 64 43 41 79 -8 13 -79 16 -502 20 l-493 5
-12 110 c-42 381 -193 696 -468 971 -237 237 -489 376 -812 445 -78 17 -139
22 -298 24 -110 2 -213 1 -230 -1z"/>
<path d="M2042 5648 c-22 -22 -14 -65 16 -86 80 -55 522 -302 540 -302 31 0
58 44 45 73 -13 28 -529 327 -564 327 -14 0 -30 -5 -37 -12z"/>
<path d="M6274 5512 c-138 -81 -259 -153 -268 -161 -9 -7 -16 -26 -16 -42 0
-39 37 -58 78 -40 80 36 516 298 529 318 14 21 14 26 -1 48 -11 17 -25 25 -44
25 -16 -1 -127 -59 -278 -148z"/>
<path d="M7153 5300 c-28 -17 -53 -65 -53 -103 0 -5 -36 -44 -80 -86 -65 -63
-80 -84 -80 -108 0 -63 11 -65 317 -76 l276 -10 24 27 c13 15 23 36 23 47 0
31 -36 59 -77 59 -49 0 -65 11 -78 52 -7 21 -23 39 -45 50 -45 23 -55 35 -69
86 -21 73 -93 102 -158 62z"/>
<path d="M2064 4935 c-15 -23 -15 -27 0 -50 17 -26 22 -28 219 -77 l129 -33
19 24 c45 55 20 76 -152 122 -172 46 -193 48 -215 14z"/>
<path d="M6346 4919 c-77 -21 -144 -43 -149 -48 -14 -14 -12 -58 3 -76 7 -8
21 -15 32 -15 16 0 220 52 300 76 71 21 58 105 -15 103 -18 0 -95 -18 -171
-40z"/>
<path d="M2316 4084 c-23 -22 -20 -60 6 -78 20 -14 197 -16 1688 -16 1405 0
1669 2 1685 14 16 12 22 12 41 -1 18 -11 52 -13 171 -9 81 2 157 5 168 5 11 0
53 -2 93 -5 91 -7 120 0 134 31 9 19 7 29 -6 50 -16 24 -21 25 -104 25 -55 0
-92 -4 -100 -12 -9 -9 -15 -9 -24 0 -8 8 -60 12 -169 12 -128 0 -159 -3 -169
-15 -12 -14 -15 -14 -30 0 -15 13 -205 15 -1693 15 -1510 0 -1677 -2 -1691
-16z"/>
<path d="M2902 3777 c-25 -30 -13 -82 21 -90 41 -11 2543 -8 2570 2 33 13 43
45 23 77 l-17 24 -1293 0 c-1013 0 -1296 -3 -1304 -13z"/>
<path d="M3312 3473 c-25 -10 -34 -53 -17 -79 l15 -24 980 0 980 0 15 24 c18
26 8 69 -19 79 -19 7 -1936 8 -1954 0z"/>
<path d="M3679 3183 c-26 -7 -39 -46 -25 -74 l12 -24 618 -3 c449 -1 623 1
632 9 22 18 17 66 -8 83 -20 14 -94 16 -618 15 -327 -1 -602 -3 -611 -6z"/>
</g>
</svg>
