<?xml version="1.0" encoding="UTF-8"?>
<svg width="700pt" height="700pt" version="1.1" viewBox="0 0 700 700" xmlns="http://www.w3.org/2000/svg" xmlns:xlink="http://www.w3.org/1999/xlink">
 <defs>
  <symbol id="g" overflow="visible">
   <path d="m39.078-2.3281c-2.0117 1.043-4.1094 1.8281-6.2969 2.3594s-4.4648 0.79688-6.8281 0.79688c-7.0859 0-12.699-1.9766-16.844-5.9375-4.1367-3.957-6.2031-9.3281-6.2031-16.109 0-6.7891 2.0664-12.164 6.2031-16.125 4.1445-3.9688 9.7578-5.9531 16.844-5.9531 2.3633 0 4.6406 0.26562 6.8281 0.79688s4.2852 1.3242 6.2969 2.375v8.7969c-2.0312-1.3828-4.0391-2.3984-6.0156-3.0469-1.9688-0.64453-4.0469-0.96875-6.2344-0.96875-3.9062 0-6.9844 1.2578-9.2344 3.7656-2.2422 2.5-3.3594 5.9531-3.3594 10.359 0 4.3867 1.1172 7.8359 3.3594 10.344 2.25 2.5 5.3281 3.75 9.2344 3.75 2.1875 0 4.2656-0.32031 6.2344-0.96875 1.9766-0.64453 3.9844-1.6602 6.0156-3.0469z"/>
  </symbol>
  <symbol id="f" overflow="visible">
   <path d="m16.031-40.953v9.0625h10.516v7.2812h-10.516v13.531c0 1.4805 0.28906 2.4805 0.875 3 0.59375 0.52344 1.7656 0.78125 3.5156 0.78125h5.2344v7.2969h-8.7344c-4.0312 0-6.8867-0.83594-8.5625-2.5156-1.6797-1.6875-2.5156-4.5391-2.5156-8.5625v-13.531h-5.0781v-7.2812h5.0781v-9.0625z"/>
  </symbol>
  <symbol id="e" overflow="visible">
   <path d="m26.594-27.234v-17.078h10.266v44.312h-10.266v-4.6094c-1.3984 1.875-2.9453 3.25-4.6406 4.125-1.6875 0.875-3.6406 1.3125-5.8594 1.3125-3.9297 0-7.1562-1.5625-9.6875-4.6875-2.5234-3.125-3.7812-7.1445-3.7812-12.062 0-4.9141 1.2578-8.9375 3.7812-12.062 2.5312-3.125 5.7578-4.6875 9.6875-4.6875 2.1953 0 4.1445 0.44531 5.8438 1.3281 1.707 0.88672 3.2578 2.2578 4.6562 4.1094zm-6.7188 20.656c2.1875 0 3.8516-0.79688 5-2.3906 1.1445-1.5938 1.7188-3.9102 1.7188-6.9531 0-3.0391-0.57422-5.3594-1.7188-6.9531-1.1484-1.5938-2.8125-2.3906-5-2.3906-2.168 0-3.8242 0.79688-4.9688 2.3906-1.1484 1.5938-1.7188 3.9141-1.7188 6.9531 0 3.043 0.57031 5.3594 1.7188 6.9531 1.1445 1.5938 2.8008 2.3906 4.9688 2.3906z"/>
  </symbol>
  <symbol id="d" overflow="visible">
   <path d="m21.875-6.5781c2.1758 0 3.8359-0.79688 4.9844-2.3906 1.1562-1.5938 1.7344-3.9102 1.7344-6.9531 0-3.0391-0.57812-5.3594-1.7344-6.9531-1.1484-1.5938-2.8086-2.3906-4.9844-2.3906-2.1875 0-3.8672 0.80469-5.0312 2.4062-1.168 1.6055-1.75 3.918-1.75 6.9375 0 3.0234 0.58203 5.3359 1.75 6.9375 1.1641 1.6055 2.8438 2.4062 5.0312 2.4062zm-6.7812-20.656c1.4062-1.8516 2.9609-3.2227 4.6719-4.1094 1.707-0.88281 3.6719-1.3281 5.8906-1.3281 3.9375 0 7.1641 1.5625 9.6875 4.6875 2.5195 3.125 3.7812 7.1484 3.7812 12.062 0 4.918-1.2617 8.9375-3.7812 12.062-2.5234 3.125-5.75 4.6875-9.6875 4.6875-2.2188 0-4.1836-0.44531-5.8906-1.3281-1.7109-0.88281-3.2656-2.2539-4.6719-4.1094v4.6094h-10.188v-44.312h10.188z"/>
  </symbol>
  <symbol id="c" overflow="visible">
   <path d="m3.2812-42.516h35.734v6.625l-22.812 27.609h23.469v8.2812h-37.047v-6.6406l22.812-27.594h-22.156z"/>
  </symbol>
  <symbol id="b" overflow="visible">
   <path d="m4.9062-44.312h10.188v24.125l11.734-11.703h11.844l-15.578 14.625 16.812 17.266h-12.359l-12.453-13.297v13.297h-10.188z"/>
  </symbol>
  <symbol id="a" overflow="visible">
   <path d="m5.3594-42.516h10.953v42.516h-10.953z"/>
  </symbol>
 </defs>
 <g>
  <path d="m512.17 260.52 26.25-2.0977 8.8672-25.086 2.0977 26.25 25.082 8.9844-26.25 2.1016-8.8633 24.965-2.1016-26.25z"/>
  <path d="m315.7 283.15c-14.594 0.30859-28.473 6.3867-38.598 16.902-10.125 10.52-15.668 24.621-15.418 39.215 0 6.4453 5.2227 11.668 11.668 11.668 6.4414 0 11.664-5.2227 11.664-11.668 0.51953-8.0391 4.168-15.555 10.164-20.938 5.9961-5.3828 13.863-8.1992 21.914-7.8477 8.0469 0.34766 15.641 3.8398 21.145 9.7227 5.5078 5.8828 8.4883 13.688 8.3047 21.742-0.17969 8.0547-3.5117 15.719-9.2773 21.348-5.7656 5.625-13.508 8.7695-21.566 8.7578h-190.87c-6.4414 0-11.664 5.2227-11.664 11.664 0 6.4453 5.2227 11.668 11.664 11.668h190.87c20.051 0 38.574-10.695 48.598-28.059 10.027-17.363 10.027-38.754 0-56.117-10.023-17.359-28.547-28.059-48.598-28.059z"/>
  <path d="m291.67 412.88h-166.84c-6.4414 0-11.664 5.2227-11.664 11.668 0 6.4414 5.2227 11.664 11.664 11.664h166.84c5.9023-0.12109 11.613 2.1133 15.863 6.2148 4.2461 4.1016 6.6836 9.7305 6.7656 15.637 0.085937 5.9062-2.1914 11.598-6.3242 15.82-4.1289 4.2188-9.7734 6.6172-15.68 6.6562-5.9062 0.042969-11.586-2.2734-15.777-6.4336s-6.5469-9.8203-6.5508-15.727c0-6.4414-5.2227-11.668-11.664-11.668-6.4453 0-11.668 5.2266-11.668 11.668 0.15625 11.871 5.0039 23.199 13.484 31.504 8.4805 8.3086 19.906 12.922 31.777 12.828 11.871-0.09375 23.223-4.8789 31.574-13.316 8.3516-8.4414 13.023-19.84 12.992-31.711-0.027344-11.875-4.7578-23.25-13.152-31.645-8.3945-8.3984-19.77-13.129-31.641-13.16z"/>
  <path d="m154 355.25 73.617-0.58203h1.75c10.922-1.8594 20.172-9.0898 24.617-19.238 4.4453-10.145 3.4805-21.848-2.5586-31.137-6.0391-9.2852-16.348-14.906-27.426-14.961-5.7148 0.10938-11.297 1.7148-16.191 4.6641-4.8945 2.9492-8.9297 7.1367-11.691 12.137-3.2227 5.6055-1.2891 12.762 4.3164 15.984 5.6055 3.2227 12.762 1.2891 15.984-4.3164 1.5938-2.8672 4.543-4.7148 7.8164-4.9023 5.1094 0.19141 9.1133 4.457 8.9805 9.5664 0.24219 4.3633-2.6445 8.2773-6.8828 9.3359l-72.332 0.58203c-6.4414 0-11.668 5.2227-11.668 11.668 0 6.4414 5.2266 11.664 11.668 11.664z"/>
  <path d="m500.38 203.23c-0.44141-1.375-1.1562-2.6445-2.0977-3.7344-0.61328-0.57031-1.2773-1.0781-1.9844-1.5156-0.46875-0.51953-1.0195-0.95312-1.6328-1.2852h-1.168c-1.0195-0.37891-2.0742-0.65234-3.1484-0.81641-1.543-0.10937-3.0898 0.089844-4.5508 0.58203-1.75 0.58203-3.3828 0.93359-5.25 1.3984v0.003907c-17.109 3.4492-34.875-0.77734-48.602-11.555-13.727-10.781-22.039-27.039-22.746-44.477-0.70312-17.441 6.2695-34.316 19.082-46.168l0.58203-0.81641c0.79687-0.8125 1.5039-1.7148 2.0977-2.6836 0.054687-0.81641 0.054687-1.6367 0-2.4531 0.066406-0.57812 0.066406-1.168 0-1.75 0.17188-0.88281 0.17188-1.7969 0-2.6797 0.058594-0.58203 0.058594-1.168 0-1.75-0.074219-0.63281-0.19141-1.2539-0.34766-1.8672-0.39453-0.91797-0.90234-1.7812-1.5156-2.5664 0 0-0.93359-0.69922-1.2852-1.0508-0.66016-0.60938-1.4102-1.1211-2.2148-1.5156-0.8125-0.37109-1.6797-0.60938-2.5664-0.70312-0.54297-0.066406-1.0938-0.066406-1.6367 0-8.3164-0.60938-16.68-0.0625-24.848 1.6328-31.281 6.0859-57.434 27.43-69.656 56.859-12.227 29.426-8.8984 63.02 8.8633 89.477 17.762 26.453 47.594 42.254 79.457 42.082 17.684 0.003907 35.016-4.9141 50.059-14.211 15.043-9.293 27.199-22.59 35.109-38.406 0.66406-1.3477 1.0586-2.8164 1.168-4.3164 0.29688-1.5 0.29688-3.0469 0-4.5508z"/>
  <path d="m556.96 100.33-28.234-9.4492-10.965-27.301c-1.8672-4.7305-6.5898-7.7031-11.664-7.3477-4.8867 0.13281-9.1719 3.3008-10.734 7.9336l-9.4492 28.234-27.418 10.965c-4.6875 1.9102-7.6055 6.6211-7.2344 11.668 0.13672 4.8828 3.3008 9.168 7.9336 10.73l28.234 9.5664 10.965 27.301c1.8086 4.3945 6.0977 7.2578 10.852 7.2344 4.8867-0.13672 9.1719-3.3008 10.734-7.9336l9.4492-28.234 27.418-10.965c4.6836-1.9102 7.6055-6.6211 7.2305-11.668-0.003906-4.6797-2.8047-8.9062-7.1172-10.734z"/>
  <path d="m236.95 151.67 9.4492 5.1328-0.81641 10.617c-0.24219 5.2891 3.1133 10.082 8.168 11.664 1.1211 0.16406 2.2617 0.16406 3.3828 0 4.2773 0.011719 8.2148-2.3164 10.266-6.0664l5.1328-9.4492 10.617 0.93359c5.543 0.51953 10.68-2.9492 12.27-8.2852 1.5898-5.3359-0.8125-11.051-5.7344-13.648l-9.6836-3.9648 0.81641-10.617c0.22656-5.3242-3.1797-10.129-8.2812-11.668-5.2422-1.5703-10.867 0.71094-13.535 5.4844l-5.1328 9.4492-10.617-0.81641c-5.0273 0.16016-9.3867 3.5195-10.816 8.3438-1.4297 4.8203 0.39062 10.016 4.5156 12.891z"/>
  <use x="70" y="735" xlink:href="#g"/>
  <use x="220.503906" y="735" xlink:href="#f"/>
  <use x="287.953125" y="735" xlink:href="#e"/>
  <use x="350.015625" y="735" xlink:href="#d"/>
  <use x="450.105469" y="735" xlink:href="#c"/>
  <use x="492.402344" y="735" xlink:href="#b"/>
  <use x="589.53125" y="735" xlink:href="#a"/>
 </g>
</svg>
