<?xml version="1.0" encoding="UTF-8"?>
<svg width="700pt" height="700pt" version="1.1" viewBox="0 0 700 700" xmlns="http://www.w3.org/2000/svg">
 <path d="m314.04 507.26c-301.5-12.477-301.42-442.09 0-454.52 39.961 0.046875 79.203 10.617 113.78 30.645 34.578 20.027 63.27 48.809 83.191 83.445 19.922 34.641 30.371 73.914 30.293 113.87 31.465 13.324 55.602 39.645 66.156 72.148 10.551 32.5 6.4844 67.98-11.156 97.246-17.637 29.27-47.105 49.441-80.773 55.297-33.664 5.8516-68.215-3.1914-94.695-24.789-32.871 17.516-69.547 26.672-106.79 26.66zm0-437.02c-55.613 0.0625-108.93 22.184-148.26 61.508-39.324 39.324-61.445 92.641-61.512 148.25-2.5391 152.91 167.67 258.12 303.18 187.82-4.4453-5-8.457-10.375-11.98-16.062-193.4 87.758-362.74-152.68-216.88-304.92 113.86-117.68 318.61-40.359 325.28 124.72h0.003906c6.6992 0.49219 13.344 1.5664 19.855 3.2109-1.4258-54.688-24.141-106.66-63.301-144.86-39.164-38.199-91.684-59.609-146.39-59.676zm92.68 365.98c11.168 21.016 29.441 37.379 51.559 46.172 22.121 8.7891 46.641 9.4336 69.191 1.8125 22.547-7.6172 41.656-22.996 53.914-43.398 12.254-20.402 16.863-44.496 13-67.98-3.8672-23.484-15.949-44.832-34.098-60.234-18.145-15.398-41.176-23.848-64.977-23.84-35.172 0.13281-67.723 18.629-85.836 48.777-18.113 30.152-19.156 67.574-2.7539 98.691zm-92.68 0.1875c9.0625 0.24609 9.1523 9.0508 8.75 15.91 22.34-1.0586 44.25-6.5117 64.48-16.047-14.93-35.004-12.148-75.047 7.4688-107.65 19.621-32.609 53.699-53.82 91.617-57.027-1.9102-39.789-17.586-77.676-44.348-107.19-4.5469 5.1367-10.828 11.18-17.363 4.9883-6.1875-6.5312-0.14453-12.824 4.9922-17.363v0.003906c-29.418-26.691-67.176-42.363-106.85-44.348 0.40625 6.8672 0.30859 15.664-8.75 15.91-9.0547-0.24609-9.1562-9.0508-8.75-15.91-39.672 1.9883-77.434 17.66-106.86 44.348 5.1445 4.543 11.191 10.824 5 17.363-6.5352 6.1914-12.824 0.14062-17.371-4.9922-28.297 31.859-43.926 72.988-43.926 115.6s15.629 83.738 43.926 115.6c4.5508-5.1328 10.836-11.184 17.371-4.9883 6.1914 6.5352 0.14453 12.828-5 17.363v-0.003906c29.422 26.688 67.184 42.359 106.86 44.348-0.40625-6.8633-0.30469-15.664 8.75-15.91zm184.62 18.934c-58.098 1.5391-93.281-74.461-50.566-115.63 8.0117-7.0703 25.66-22.008 36.246-14.188 2.2695 2.2656 3.1172 5.5938 2.2031 8.668-2.5156 8.8125-2.6016 18.141-0.25781 27 2.3477 8.8555 7.043 16.918 13.59 23.328 6.4141 6.5664 14.484 11.277 23.355 13.637 8.8711 2.3555 18.215 2.2773 27.043-0.23828 3.0742-0.88672 6.3867-0.042969 8.6641 2.207 2.2695 2.2656 3.1172 5.5898 2.2031 8.6641-3.9766 13.473-12.215 25.293-23.48 33.688-11.266 8.3945-24.949 12.91-39 12.863zm-31.617-108.76c-60.164 47.176 24.465 130.6 70.855 70.836-18.855 0.12109-36.988-7.2656-50.398-20.523-13.402-13.273-20.793-31.453-20.457-50.312zm-153-42.367c-4.8828-0.003906-9.6523-1.4844-13.684-4.2422-4.0312-2.7617-7.1367-6.6719-8.9102-11.223h-75.734c-7.6914-0.58984-23.402 3.3047-23.609-8.75 0.21094-12.051 15.91-8.1641 23.609-8.75h75.734c2.4805-6.3398 7.5-11.352 13.844-13.824v-105.67c0-4.832 3.918-8.75 8.75-8.75s8.75 3.918 8.75 8.75v105.67c6.9727 2.832 12.238 8.7344 14.258 15.984s0.56641 15.023-3.9375 21.055c-4.5039 6.0273-11.547 9.6289-19.07 9.75zm0-30.934c-12.797 1.4531-4.9062 18.711 4.7773 11.5v0.003906c1.875-1.9492 2.4141-4.8203 1.3789-7.3164-1.0352-2.4961-3.4531-4.1406-6.1562-4.1836z"/>
</svg>
