<?xml version="1.0" encoding="UTF-8"?>
<svg width="700pt" height="700pt" version="1.1" viewBox="0 0 700 700" xmlns="http://www.w3.org/2000/svg" xmlns:xlink="http://www.w3.org/1999/xlink">
 <defs>
  <symbol id="s" overflow="visible">
   <path d="m3.6562-0.21875c-0.1875 0.09375-0.38672 0.16797-0.59375 0.21875-0.19922 0.050781-0.40625 0.078125-0.625 0.078125-0.66797 0-1.1992-0.17969-1.5938-0.54688-0.38672-0.375-0.57812-0.87891-0.57812-1.5156 0-0.64453 0.19141-1.1484 0.57812-1.5156 0.39453-0.375 0.92578-0.5625 1.5938-0.5625 0.21875 0 0.42578 0.027344 0.625 0.078125 0.20703 0.054687 0.40625 0.125 0.59375 0.21875v0.82812c-0.1875-0.125-0.375-0.21875-0.5625-0.28125-0.17969-0.0625-0.37109-0.09375-0.57812-0.09375-0.36719 0-0.65625 0.12109-0.875 0.35938-0.21094 0.23047-0.3125 0.55469-0.3125 0.96875 0 0.40625 0.10156 0.73047 0.3125 0.96875 0.21875 0.23047 0.50781 0.34375 0.875 0.34375 0.20703 0 0.39844-0.023437 0.57812-0.078125 0.1875-0.0625 0.375-0.16016 0.5625-0.29688z"/>
  </symbol>
  <symbol id="b" overflow="visible">
   <path d="m2.6875-2.1719c-0.085938-0.039063-0.16797-0.070313-0.25-0.09375-0.085938-0.019531-0.16797-0.03125-0.25-0.03125-0.25 0-0.44531 0.085937-0.57812 0.25-0.125 0.15625-0.1875 0.38281-0.1875 0.67188v1.375h-0.96875v-2.9844h0.96875v0.48438c0.11328-0.19531 0.25-0.33594 0.40625-0.42188 0.16406-0.09375 0.35938-0.14062 0.57812-0.14062h0.10938c0.039063 0 0.09375 0.007812 0.15625 0.015625z"/>
  </symbol>
  <symbol id="a" overflow="visible">
   <path d="m3.4375-1.5v0.26562h-2.2344c0.03125 0.23047 0.11328 0.40234 0.25 0.51562 0.13281 0.10547 0.32812 0.15625 0.57812 0.15625 0.20703 0 0.41406-0.023438 0.625-0.078125 0.20703-0.0625 0.42188-0.15625 0.64062-0.28125v0.73438c-0.21875 0.09375-0.44531 0.16406-0.67188 0.20312-0.23047 0.039062-0.45312 0.0625-0.67188 0.0625-0.54297 0-0.96484-0.13281-1.2656-0.40625-0.30469-0.28125-0.45312-0.67188-0.45312-1.1719 0-0.47656 0.14453-0.85938 0.4375-1.1406 0.30078-0.28125 0.70703-0.42188 1.2188-0.42188 0.46875 0 0.84375 0.14062 1.125 0.42188s0.42188 0.66406 0.42188 1.1406zm-0.96875-0.32812c0-0.17578-0.058594-0.31641-0.17188-0.42188-0.10547-0.11328-0.24219-0.17188-0.40625-0.17188-0.1875 0-0.33984 0.054687-0.45312 0.15625-0.11719 0.10547-0.1875 0.25-0.21875 0.4375z"/>
  </symbol>
  <symbol id="i" overflow="visible">
   <path d="m1.7969-1.3438c-0.19922 0-0.35156 0.039062-0.45312 0.10938-0.09375 0.0625-0.14062 0.16406-0.14062 0.29688 0 0.11719 0.035156 0.21094 0.10938 0.28125 0.082031 0.0625 0.19531 0.09375 0.34375 0.09375 0.17578 0 0.32812-0.0625 0.45312-0.1875s0.1875-0.28516 0.1875-0.48438v-0.10938zm1.4688-0.35938v1.7031h-0.96875v-0.4375c-0.125 0.17969-0.27344 0.30859-0.4375 0.39062-0.15625 0.082031-0.35156 0.125-0.57812 0.125-0.3125 0-0.57031-0.085938-0.76562-0.26562-0.1875-0.1875-0.28125-0.42188-0.28125-0.70312 0-0.35156 0.11719-0.61328 0.35938-0.78125 0.23828-0.16406 0.61719-0.25 1.1406-0.25h0.5625v-0.0625c0-0.15625-0.0625-0.26562-0.1875-0.32812-0.11719-0.070312-0.29688-0.10938-0.54688-0.10938-0.21094 0-0.40234 0.023437-0.57812 0.0625-0.17969 0.042969-0.33984 0.10156-0.48438 0.17188v-0.71875c0.19531-0.050781 0.39844-0.085938 0.60938-0.10938 0.20703-0.03125 0.41406-0.046875 0.625-0.046875 0.53906 0 0.92969 0.10938 1.1719 0.32812 0.23828 0.21094 0.35938 0.55469 0.35938 1.0312z"/>
  </symbol>
  <symbol id="c" overflow="visible">
   <path d="m1.5-3.8438v0.85938h0.98438v0.67188h-0.98438v1.2812c0 0.13672 0.023438 0.23047 0.078125 0.28125 0.0625 0.042969 0.17578 0.0625 0.34375 0.0625h0.48438v0.6875h-0.8125c-0.38672 0-0.65625-0.078125-0.8125-0.23438s-0.23438-0.42188-0.23438-0.79688v-1.2812h-0.46875v-0.67188h0.46875v-0.85938z"/>
  </symbol>
  <symbol id="h" overflow="visible">
   <path d="m2.5-2.5469v-1.6094h0.95312v4.1562h-0.95312v-0.4375c-0.13672 0.17969-0.28125 0.30859-0.4375 0.39062-0.15625 0.082031-0.33984 0.125-0.54688 0.125-0.375 0-0.68359-0.14453-0.92188-0.4375-0.23047-0.28906-0.34375-0.67188-0.34375-1.1406 0-0.45703 0.11328-0.83203 0.34375-1.125 0.23828-0.28906 0.54688-0.4375 0.92188-0.4375 0.19531 0 0.375 0.042969 0.53125 0.125 0.16406 0.085938 0.31641 0.21484 0.45312 0.39062zm-0.64062 1.9375c0.20703 0 0.36328-0.070313 0.46875-0.21875 0.11328-0.15625 0.17188-0.37891 0.17188-0.67188 0-0.28125-0.058594-0.49219-0.17188-0.64062-0.10547-0.15625-0.26172-0.23438-0.46875-0.23438-0.19922 0-0.35547 0.078125-0.46875 0.23438-0.10547 0.14844-0.15625 0.35938-0.15625 0.64062 0 0.29297 0.050781 0.51562 0.15625 0.67188 0.11328 0.14844 0.26953 0.21875 0.46875 0.21875z"/>
  </symbol>
  <symbol id="g" overflow="visible">
   <path d="m2.0469-0.60938c0.20703 0 0.36328-0.070313 0.46875-0.21875 0.11328-0.15625 0.17188-0.37891 0.17188-0.67188 0-0.28125-0.058594-0.49219-0.17188-0.64062-0.10547-0.15625-0.26172-0.23438-0.46875-0.23438-0.19922 0-0.35547 0.078125-0.46875 0.23438-0.10547 0.14844-0.15625 0.35938-0.15625 0.64062 0 0.29297 0.050781 0.51562 0.15625 0.67188 0.11328 0.14844 0.26953 0.21875 0.46875 0.21875zm-0.625-1.9375c0.125-0.17578 0.26562-0.30469 0.42188-0.39062 0.16406-0.082031 0.35156-0.125 0.5625-0.125 0.36328 0 0.66406 0.14844 0.90625 0.4375 0.23828 0.29297 0.35938 0.66797 0.35938 1.125 0 0.46875-0.12109 0.85156-0.35938 1.1406-0.24219 0.29297-0.54297 0.4375-0.90625 0.4375-0.21094 0-0.39844-0.042969-0.5625-0.125-0.15625-0.082031-0.29688-0.21094-0.42188-0.39062v0.4375h-0.96875v-4.1562h0.96875z"/>
  </symbol>
  <symbol id="f" overflow="visible">
   <path d="m0.0625-2.9844h0.95312l0.8125 2.0156 0.6875-2.0156h0.95312l-1.2656 3.2656c-0.125 0.33203-0.27344 0.56641-0.4375 0.70312-0.16797 0.13281-0.39062 0.20312-0.67188 0.20312h-0.54688v-0.64062h0.29688c0.16406 0 0.28516-0.027344 0.35938-0.078125 0.070313-0.054688 0.12891-0.14062 0.17188-0.26562l0.03125-0.09375z"/>
  </symbol>
  <symbol id="e" overflow="visible">
   <path d="m0.45312-2.9844h0.96875v2.9844h-0.96875zm0-1.1719h0.96875v0.78125h-0.96875z"/>
  </symbol>
  <symbol id="k" overflow="visible">
   <path d="m3.4688-1.8281v1.8281h-0.96875v-1.3906c0-0.25781-0.007812-0.4375-0.015625-0.53125-0.011719-0.10156-0.03125-0.17578-0.0625-0.21875-0.03125-0.0625-0.085937-0.10938-0.15625-0.14062-0.0625-0.039062-0.13281-0.0625-0.20312-0.0625-0.21094 0-0.37109 0.078125-0.48438 0.23438-0.10547 0.15625-0.15625 0.37109-0.15625 0.64062v1.4688h-0.96875v-2.9844h0.96875v0.4375c0.13281-0.17578 0.28516-0.30469 0.45312-0.39062 0.16406-0.082031 0.34375-0.125 0.53125-0.125 0.34375 0 0.60156 0.10938 0.78125 0.32812 0.1875 0.21094 0.28125 0.51172 0.28125 0.90625z"/>
  </symbol>
  <symbol id="j" overflow="visible">
   <path d="m2.4219-4.1562v0.625h-0.51562c-0.13672 0-0.23438 0.027344-0.29688 0.078125-0.054687 0.054687-0.078125 0.13672-0.078125 0.25v0.21875h0.82812v0.67188h-0.82812v2.3125h-0.95312v-2.3125h-0.46875v-0.67188h0.46875v-0.21875c0-0.32031 0.085937-0.5625 0.26562-0.71875 0.1875-0.15625 0.47266-0.23438 0.85938-0.23438z"/>
  </symbol>
  <symbol id="d" overflow="visible">
   <path d="m1.875-2.375c-0.21094 0-0.37109 0.078125-0.48438 0.23438-0.10547 0.14844-0.15625 0.35938-0.15625 0.64062 0 0.29297 0.050781 0.51562 0.15625 0.67188 0.11328 0.14844 0.27344 0.21875 0.48438 0.21875 0.20703 0 0.36719-0.070313 0.48438-0.21875 0.11328-0.15625 0.17188-0.37891 0.17188-0.67188 0-0.28125-0.058594-0.49219-0.17188-0.64062-0.11719-0.15625-0.27734-0.23438-0.48438-0.23438zm0-0.6875c0.51953 0 0.92188 0.14062 1.2031 0.42188 0.28906 0.27344 0.4375 0.65234 0.4375 1.1406 0 0.5-0.14844 0.89062-0.4375 1.1719-0.28125 0.27344-0.68359 0.40625-1.2031 0.40625-0.51172 0-0.91406-0.13281-1.2031-0.40625-0.29297-0.28125-0.4375-0.67188-0.4375-1.1719 0-0.48828 0.14453-0.86719 0.4375-1.1406 0.28906-0.28125 0.69141-0.42188 1.2031-0.42188z"/>
  </symbol>
  <symbol id="r" overflow="visible">
   <path d="m3.2344-2.5c0.11328-0.17578 0.25391-0.3125 0.42188-0.40625 0.16406-0.10156 0.35156-0.15625 0.5625-0.15625 0.33203 0 0.58594 0.10938 0.76562 0.32812 0.1875 0.21094 0.28125 0.51172 0.28125 0.90625v1.8281h-0.96875v-1.5625c0.007813-0.019531 0.015625-0.039062 0.015625-0.0625v-0.10938c0-0.21875-0.03125-0.375-0.09375-0.46875s-0.16406-0.14062-0.29688-0.14062c-0.1875 0-0.33594 0.078125-0.4375 0.23438-0.09375 0.14844-0.14062 0.35938-0.14062 0.64062v1.4688h-0.96875v-1.5625c0-0.33203-0.03125-0.54688-0.09375-0.64062-0.054688-0.09375-0.15234-0.14062-0.29688-0.14062-0.17969 0-0.32031 0.078125-0.42188 0.23438-0.09375 0.14844-0.14062 0.35938-0.14062 0.64062v1.4688h-0.96875v-2.9844h0.96875v0.4375c0.11328-0.17578 0.24219-0.30469 0.39062-0.39062 0.15625-0.082031 0.32812-0.125 0.51562-0.125 0.20703 0 0.39062 0.054688 0.54688 0.15625 0.15625 0.09375 0.27344 0.23047 0.35938 0.40625z"/>
  </symbol>
  <symbol id="q" overflow="visible">
   <path d="m3.4688-1.8281v1.8281h-0.96875v-1.3906c0-0.25781-0.007812-0.4375-0.015625-0.53125-0.011719-0.10156-0.03125-0.17578-0.0625-0.21875-0.03125-0.0625-0.085937-0.10938-0.15625-0.14062-0.0625-0.039062-0.13281-0.0625-0.20312-0.0625-0.21094 0-0.37109 0.078125-0.48438 0.23438-0.10547 0.15625-0.15625 0.37109-0.15625 0.64062v1.4688h-0.96875v-4.1562h0.96875v1.6094c0.13281-0.17578 0.28516-0.30469 0.45312-0.39062 0.16406-0.082031 0.34375-0.125 0.53125-0.125 0.34375 0 0.60156 0.10938 0.78125 0.32812 0.1875 0.21094 0.28125 0.51172 0.28125 0.90625z"/>
  </symbol>
  <symbol id="p" overflow="visible">
   <path d="m0.5-3.9844h1.1562l1.4375 2.7344v-2.7344h0.98438v3.9844h-1.1562l-1.4375-2.7344v2.7344h-0.98438z"/>
  </symbol>
  <symbol id="o" overflow="visible">
   <path d="m0.42188-1.1719v-1.8125h0.96875v0.29688 0.60938 0.48438c0 0.24219 0.003906 0.41797 0.015625 0.53125 0.007812 0.10547 0.03125 0.17969 0.0625 0.21875 0.039062 0.0625 0.09375 0.11719 0.15625 0.15625 0.0625 0.03125 0.13281 0.046875 0.21875 0.046875 0.19531 0 0.35156-0.078125 0.46875-0.23438 0.11328-0.15625 0.17188-0.36719 0.17188-0.64062v-1.4688h0.95312v2.9844h-0.95312v-0.4375c-0.14844 0.17969-0.30469 0.30859-0.46875 0.39062-0.15625 0.082031-0.33594 0.125-0.53125 0.125-0.34375 0-0.60938-0.10156-0.79688-0.3125-0.17969-0.21875-0.26562-0.53125-0.26562-0.9375z"/>
  </symbol>
  <symbol id="n" overflow="visible">
   <path d="m0.5-3.9844h1.7031c0.50781 0 0.89844 0.11719 1.1719 0.34375 0.26953 0.21875 0.40625 0.53906 0.40625 0.95312 0 0.41797-0.13672 0.74219-0.40625 0.96875-0.27344 0.21875-0.66406 0.32812-1.1719 0.32812h-0.67188v1.3906h-1.0312zm1.0312 0.75v1.1094h0.5625c0.19531 0 0.34766-0.046875 0.45312-0.14062 0.11328-0.10156 0.17188-0.24219 0.17188-0.42188 0-0.17578-0.058594-0.3125-0.17188-0.40625-0.10547-0.09375-0.25781-0.14062-0.45312-0.14062z"/>
  </symbol>
  <symbol id="m" overflow="visible">
   <path d="m0.45312-2.9844h0.96875v2.9375c0 0.39453-0.10156 0.69531-0.29688 0.90625-0.1875 0.21875-0.46484 0.32812-0.82812 0.32812h-0.48438v-0.64062h0.17188c0.17578 0 0.29688-0.042969 0.35938-0.125 0.070312-0.074219 0.10938-0.23047 0.10938-0.46875zm0-1.1719h0.96875v0.78125h-0.96875z"/>
  </symbol>
  <symbol id="l" overflow="visible">
   <path d="m2.875-2.8906v0.76562c-0.125-0.082031-0.25781-0.14453-0.39062-0.1875-0.13672-0.039062-0.27344-0.0625-0.40625-0.0625-0.27344 0-0.48047 0.078125-0.625 0.23438-0.14844 0.15625-0.21875 0.37109-0.21875 0.64062 0 0.28125 0.070313 0.5 0.21875 0.65625 0.14453 0.15625 0.35156 0.23438 0.625 0.23438 0.14453 0 0.28516-0.019531 0.42188-0.0625 0.13281-0.039063 0.25781-0.10938 0.375-0.20312v0.78125c-0.14844 0.0625-0.29688 0.10156-0.45312 0.125-0.15625 0.03125-0.3125 0.046875-0.46875 0.046875-0.54297 0-0.96484-0.13281-1.2656-0.40625-0.30469-0.28125-0.45312-0.67188-0.45312-1.1719 0-0.48828 0.14844-0.86719 0.45312-1.1406 0.30078-0.28125 0.72266-0.42188 1.2656-0.42188 0.15625 0 0.3125 0.015625 0.46875 0.046875 0.15625 0.023437 0.30469 0.0625 0.45312 0.125z"/>
  </symbol>
 </defs>
 <g>
  <path d="m164.55 153.91c0-4.8242-3.9258-8.75-8.7578-8.75-0.80469 0-1.5391 0.097657-2.3164 0.30469-1.2422 0.33594-2.5742 0.10156-3.6328-0.63672s-1.7383-1.9023-1.8555-3.1875c-0.36719-4.0078-3.5781-7.3125-7.625-7.8633-2.1445-0.28906-3.7539-2.1055-3.7891-4.2656-0.10937-6.9727-5.8945-12.648-12.895-12.648-7.1094 0-12.895 5.7812-12.895 12.887v0.30859c0 1.7344-1.0273 3.3086-2.6172 4.0039-3.1562 1.3867-5.582 3.918-6.8242 7.125-0.47266 1.2148-1.4609 2.1562-2.6953 2.5703-3.5742 1.1914-5.9727 4.5312-5.9727 8.3125 0 4.8242 3.9258 8.75 8.7578 8.75 9.8008 0 18.98 0.48828 27.863 0.96094 8.9492 0.47656 17.402 0.92578 26.508 0.92578 4.8164 0.003906 8.7461-3.9453 8.7461-8.7969z"/>
  <path d="m602.91 294.14c-0.43359 0-0.89844 0.070312-1.4258 0.21094-1.2344 0.33203-2.5625 0.10156-3.6211-0.62891-1.0547-0.73047-1.7383-1.8906-1.8633-3.168-0.25391-2.5547-2.2344-4.5859-4.8164-4.9375-2.1445-0.29297-3.7539-2.1094-3.7852-4.2695-0.066406-4.6328-3.9062-8.4023-8.5586-8.4023-4.7422 0-8.6016 3.832-8.6016 8.5469v0.25781c0 1.7305-1.0195 3.2969-2.6016 4-2.0898 0.92578-3.7422 2.6445-4.5312 4.7109-0.46484 1.2148-1.4414 2.1602-2.668 2.5781-2.2656 0.77734-3.7891 2.8672-3.7891 5.207 0 2.9688 2.5156 5.4805 5.4922 5.4805 7.375 0 14.277 0.35938 20.945 0.70703 6.6953 0.34766 13.023 0.67578 19.828 0.67578 3.0234 0 5.4844-2.4609 5.4844-5.4883-0.003906-2.9688-2.5156-5.4805-5.4883-5.4805z"/>
  <path d="m346.49 198.02c2.418 0 4.375-1.957 4.375-4.375v-47.496c0-2.418-1.957-4.375-4.375-4.375-2.418 0-4.375 1.957-4.375 4.375v47.496c0 2.418 1.957 4.375 4.375 4.375z"/>
  <path d="m424.16 218.78c0.69141 0.39844 1.4414 0.58984 2.1836 0.58984 1.5117 0 2.9805-0.78516 3.793-2.1875l23.762-41.113c1.207-2.0938 0.49219-4.7695-1.5977-5.9766-2.0938-1.2109-4.7695-0.49219-5.9766 1.5977l-23.762 41.113c-1.2109 2.0938-0.49219 4.7695 1.5977 5.9766z"/>
  <path d="m481.02 275.61c0.80859 1.4023 2.2812 2.1875 3.793 2.1875 0.74219 0 1.4961-0.1875 2.1836-0.58594l41.137-23.746c2.0938-1.207 2.8086-3.8828 1.6016-5.9766-1.207-2.0898-3.8828-2.8086-5.9766-1.6016l-41.137 23.75c-2.0898 1.2031-2.8086 3.8789-1.6016 5.9727z"/>
  <path d="m163.25 247.49c-1.207 2.0938-0.48828 4.7695 1.6016 5.9766l41.164 23.746c0.6875 0.39844 1.4375 0.58594 2.1797 0.58594 1.5117 0 2.9844-0.78516 3.793-2.1914 1.207-2.0938 0.48828-4.7695-1.6055-5.9766l-41.16-23.742c-2.0898-1.2109-4.7656-0.48828-5.9727 1.6016z"/>
  <path d="m262.86 217.18c0.80859 1.4023 2.2812 2.1875 3.793 2.1875 0.74219 0 1.4961-0.19141 2.1836-0.58594 2.0938-1.207 2.8086-3.8867 1.6016-5.9766l-23.754-41.113c-1.207-2.0938-3.8867-2.8047-5.9766-1.6016-2.0938 1.207-2.8086 3.8867-1.6016 5.9766z"/>
  <path d="m386.69 203.29c0.37891 0.10156 0.76172 0.15234 1.1367 0.15234 1.9297 0 3.6992-1.2891 4.2227-3.2422l6.1562-22.934c0.62891-2.3359-0.75391-4.7344-3.0898-5.3594-2.3281-0.62109-4.7305 0.75781-5.3594 3.0898l-6.1562 22.934c-0.62891 2.332 0.75391 4.7305 3.0898 5.3594z"/>
  <path d="m459.41 244.75c1.1172 0 2.2383-0.42578 3.0938-1.2812l16.812-16.801c1.7109-1.707 1.7109-4.4805 0.003906-6.1875-1.707-1.7109-4.4766-1.7109-6.1875-0.003906l-16.812 16.801c-1.7109 1.707-1.7109 4.4805-0.003906 6.1875 0.85156 0.85938 1.9727 1.2852 3.0938 1.2852z"/>
  <path d="m522.56 301.57-22.941 6.1289c-2.3359 0.625-3.7227 3.0234-3.0977 5.3555 0.52344 1.957 2.293 3.2461 4.2227 3.2461 0.375 0 0.75391-0.046875 1.1328-0.14844l22.941-6.1289c2.3359-0.625 3.7227-3.0234 3.0977-5.3555-0.625-2.3359-3.0234-3.7227-5.3555-3.0977z"/>
  <path d="m170.44 301.57c-2.3359-0.625-4.7344 0.76172-5.3555 3.0977-0.625 2.3359 0.76172 4.7305 3.0977 5.3555l22.938 6.1289c0.37891 0.10156 0.75781 0.14844 1.1328 0.14844 1.9336 0 3.7031-1.293 4.2227-3.2461 0.625-2.3359-0.76172-4.7305-3.0977-5.3555z"/>
  <path d="m230.5 243.47c0.85547 0.85156 1.9727 1.2812 3.0938 1.2812 1.1172 0 2.2422-0.42578 3.0938-1.2812 1.707-1.7109 1.707-4.4805-0.003906-6.1875l-16.812-16.801c-1.7109-1.707-4.4805-1.707-6.1875 0.003906-1.707 1.7109-1.707 4.4805 0.003906 6.1875z"/>
  <path d="m300.92 200.2c0.52344 1.957 2.293 3.2461 4.2227 3.2461 0.375 0 0.75391-0.046875 1.1328-0.14844 2.3359-0.625 3.7188-3.0234 3.0977-5.3555l-6.1289-22.934c-0.625-2.3359-3.0195-3.7227-5.3555-3.0977s-3.7188 3.0234-3.0938 5.3555z"/>
  <path d="m552.67 348.88h-76.492c-2.3164-69.477-59.598-125.28-129.68-125.28-70.062 0-127.32 55.805-129.64 125.28h-76.496c-2.418 0-4.375 1.957-4.375 4.375s1.957 4.375 4.375 4.375h331.52 0.023438 80.766c2.418 0 4.375-1.957 4.375-4.375 0.003907-2.418-1.957-4.375-4.3711-4.375z"/>
  <path d="m501.97 370.83h-10.168c-1.6797 0-3.125 0.96094-3.8555 2.3516-0.73438-1.3906-2.1758-2.3516-3.8555-2.3516h-21.102c-1.9102 0-3.5156 1.2305-4.1133 2.9375-0.59766-1.707-2.2031-2.9375-4.1133-2.9375h-265.94c-2.418 0-4.375 1.957-4.375 4.375s1.957 4.375 4.375 4.375h265.93c1.9102 0 3.5156-1.2305 4.1133-2.9375 0.59766 1.707 2.2031 2.9375 4.1133 2.9375h21.102c1.6797 0 3.125-0.96094 3.8555-2.3516 0.73438 1.3906 2.1758 2.3516 3.8555 2.3516h10.168c2.418 0 4.375-1.957 4.375-4.375 0.003906-2.418-1.9531-4.375-4.3711-4.375z"/>
  <path d="m439.38 395.66h-168.01c-0.98047 0-1.875 0.33203-2.6016 0.87891-0.73047-0.54297-1.625-0.87891-2.6016-0.87891h-13.336c-0.89844 0-1.7305 0.27344-2.4258 0.73828-0.69531-0.46484-1.5273-0.73828-2.4258-0.73828h-12.062c-2.418 0-4.375 1.957-4.375 4.375s1.957 4.375 4.375 4.375h12.062c0.89844 0 1.7305-0.27344 2.4258-0.73828 0.69531 0.46484 1.5273 0.73828 2.4258 0.73828h13.336c0.98047 0 1.875-0.33203 2.6016-0.87891 0.73047 0.54297 1.625 0.87891 2.6016 0.87891h168.01c2.418 0 4.375-1.957 4.375-4.375s-1.9609-4.375-4.375-4.375z"/>
  <path d="m420.83 420.93h-12.566c-0.64062 0-1.2422 0.14453-1.7891 0.39062-0.54687-0.24609-1.1523-0.39062-1.7891-0.39062h-9.7578c-0.69141 0-1.3359 0.17578-1.918 0.46094-0.58203-0.28516-1.2266-0.46094-1.918-0.46094h-123.19c-2.418 0-4.375 1.957-4.375 4.375 0 2.418 1.957 4.375 4.375 4.375h123.2c0.69141 0 1.3359-0.17578 1.918-0.46094 0.58203 0.28516 1.2266 0.46094 1.918 0.46094h9.7578c0.64062 0 1.2422-0.14453 1.7891-0.39062 0.54688 0.24609 1.1523 0.39062 1.7891 0.39062h12.566c2.418 0 4.375-1.957 4.375-4.375-0.003907-2.4141-1.9648-4.375-4.3789-4.375z"/>
  <path d="m391.81 444.18h-76.445c-0.41406 0-0.80469 0.074219-1.1875 0.18359-0.37891-0.10938-0.77344-0.18359-1.1875-0.18359h-6.0625c-0.37891 0-0.74219 0.066407-1.0977 0.15625-0.35156-0.09375-0.71484-0.15625-1.0977-0.15625h-7.8242c-2.418 0-4.375 1.957-4.375 4.375s1.957 4.375 4.375 4.375h7.8242c0.37891 0 0.74219-0.066406 1.0977-0.15625 0.35156 0.09375 0.71484 0.15625 1.0977 0.15625h6.0625c0.41406 0 0.80469-0.074219 1.1875-0.18359 0.37891 0.10937 0.77344 0.18359 1.1875 0.18359h76.445c2.418 0 4.375-1.957 4.375-4.375s-1.957-4.375-4.375-4.375z"/>
  <use x="70" y="576.40625" xlink:href="#s"/>
  <use x="74.011719" y="576.40625" xlink:href="#b"/>
  <use x="76.710938" y="576.40625" xlink:href="#a"/>
  <use x="80.417969" y="576.40625" xlink:href="#i"/>
  <use x="84.109375" y="576.40625" xlink:href="#c"/>
  <use x="86.722656" y="576.40625" xlink:href="#a"/>
  <use x="90.433594" y="576.40625" xlink:href="#h"/>
  <use x="96.25" y="576.40625" xlink:href="#g"/>
  <use x="100.167969" y="576.40625" xlink:href="#f"/>
  <use x="105.636719" y="576.40625" xlink:href="#e"/>
  <use x="107.507812" y="576.40625" xlink:href="#g"/>
  <use x="111.425781" y="576.40625" xlink:href="#b"/>
  <use x="114.121094" y="576.40625" xlink:href="#i"/>
  <use x="117.8125" y="576.40625" xlink:href="#k"/>
  <use x="121.703125" y="576.40625" xlink:href="#h"/>
  <use x="125.621094" y="576.40625" xlink:href="#e"/>
  <use x="127.492188" y="576.40625" xlink:href="#j"/>
  <use x="129.875" y="576.40625" xlink:href="#f"/>
  <use x="70" y="581.875" xlink:href="#j"/>
  <use x="72.378906" y="581.875" xlink:href="#b"/>
  <use x="75.078125" y="581.875" xlink:href="#d"/>
  <use x="78.832031" y="581.875" xlink:href="#r"/>
  <use x="86.4375" y="581.875" xlink:href="#c"/>
  <use x="89.050781" y="581.875" xlink:href="#q"/>
  <use x="92.941406" y="581.875" xlink:href="#a"/>
  <use x="98.554688" y="581.875" xlink:href="#p"/>
  <use x="103.132812" y="581.875" xlink:href="#d"/>
  <use x="106.890625" y="581.875" xlink:href="#o"/>
  <use x="110.785156" y="581.875" xlink:href="#k"/>
  <use x="116.582031" y="581.875" xlink:href="#n"/>
  <use x="120.589844" y="581.875" xlink:href="#b"/>
  <use x="123.285156" y="581.875" xlink:href="#d"/>
  <use x="127.042969" y="581.875" xlink:href="#m"/>
  <use x="128.917969" y="581.875" xlink:href="#a"/>
  <use x="132.625" y="581.875" xlink:href="#l"/>
  <use x="135.867188" y="581.875" xlink:href="#c"/>
 </g>
</svg>
