<?xml version="1.0" encoding="UTF-8"?>
<svg width="700pt" height="700pt" version="1.1" viewBox="0 0 700 700" xmlns="http://www.w3.org/2000/svg">
 <g>
  <path d="m341.25 262.5c-16.125 0-157.5-1.5898-157.5-56.809 0-21.809 22.25-37.871 66.148-47.766 9.4062-2.1016 18.789 3.793 20.918 13.227s-3.793 18.797-13.227 20.918c-21.488 4.8359-32.352 10.355-36.887 13.707 11.582 8.8711 55.418 21.723 120.55 21.723 38.426 0 74.762-4.5469 99.695-12.492 9.1445-2.9414 19.039 2.1523 21.977 11.363 2.9414 9.2109-2.1523 19.055-11.363 21.992-28.227 8.9766-68.43 14.137-110.31 14.137z"/>
  <path d="m336.25 332.5c-35.336 0-117.5-4-117.5-41.086 0-8.0664 4.0156-19.398 23.156-27.516 8.8789-3.8125 19.176 0.35937 22.953 9.2617 2.3594 5.5352 1.6328 11.637-1.4102 16.34 14.012 4 38.914 8 72.805 8 27.18 0 52.875-2.6992 70.488-7.3828 9.3711-2.5625 18.926 3.0586 21.422 12.391 2.4883 9.3477-3.0586 18.934-12.398 21.414-20.734 5.5352-48.973 8.5781-79.512 8.5781z"/>
  <path d="m331.25 402.5c-38.582 0-77.504-12.699-77.504-41.086 0-5.6562 1.9336-16.523 14.875-25.703 7.9062-5.5859 18.816-3.707 24.395 4.1719 4.5625 6.4453 4.1602 14.902-0.4375 20.832 7.0117 3.2148 20.555 6.7852 38.672 6.7852 14.605 0 28.77-2.4258 37.887-6.4766 8.8438-3.9297 19.164 0.050781 23.098 8.8867 3.9297 8.8359-0.050781 19.176-8.8789 23.105-13.773 6.1172-32.273 9.4844-52.105 9.4844z"/>
  <path d="m323.75 472.5c-19.703 0-192.5-1.7266-192.5-61.25 0-27.227 35.359-38.98 46.973-42.859 9.1953-2.9922 19.082 1.9141 22.129 11.09 3.0508 9.1602-1.9062 19.07-11.074 22.129-12.004 3.9805-18.098 7.5547-21.047 9.7773 13.52 10.512 69.84 26.113 155.52 26.113 91.199 0 149.12-17.672 157.59-28.078 0.91406-8.8008 8.3555-15.672 17.406-15.672 9.6641 0 17.5 7.8281 17.5 17.5 0 59.523-172.8 61.25-192.5 61.25z"/>
  <path d="m308.98 525c-8.8789 0-16.242-0.11719-21.082-0.33984-9.6484-0.46094-17.098-8.6641-16.637-18.32 0.47266-9.6719 8.5977-17.348 18.328-16.645 17.566 0.83984 74.074-0.15234 107.89-1.9336 80.27-4.1719 127.35-25.004 136.23-34.352 0.69141-7.6562 6.4102-14.219 14.348-15.637 9.457-1.7266 18.594 4.6289 20.309 14.133 0.94922 5.2812 0.59766 13.414-6.3984 22.25-19.543 24.625-86.434 44.59-162.66 48.57-26.246 1.3672-64.621 2.2734-90.324 2.2734z"/>
  <path d="m481.27 350c-5.5117 0-10.93-2.5977-14.336-7.4336-5.5547-7.9102-3.6484-18.832 4.2656-24.387 0.46094-0.32422 50.707-36.691 61.402-98.098 2.793-15.996 0.74219-36.984-7.4258-42.98-5.9727-4.375-19.047-1.8984-35.863 6.8164-8.5977 4.4414-19.141 1.1094-23.59-7.4844-4.4531-8.5781-1.1016-19.141 7.4766-23.586 30.336-15.738 54.781-17.055 72.664-3.9805 29.891 21.91 22.199 71.625 21.227 77.23-13.254 76.031-73.23 118.93-75.777 120.72-3.0586 2.1523-6.5742 3.1797-10.043 3.1797z"/>
  <path d="m329.8 210c-4.6289 0-9.2617-1.8281-12.699-5.4688l-14.758-15.566c-16.398-17.297-18.234-44.039-4.3594-63.59l22.996-32.336c3.1523-4.4414 3.6562-10.543 1.2812-15.566l-8.2773-17.484c-4.1367-8.7344-0.41016-19.156 8.3242-23.293 8.75-4.1211 19.184-0.42578 23.309 8.3242l8.2773 17.484c7.8281 16.523 6.1445 35.992-4.3906 50.809l-22.984 32.336c-4.0859 5.7578-3.5469 14.219 1.2227 19.262l14.758 15.566c6.6484 7.0078 6.3594 18.082-0.65625 24.73-3.3867 3.2031-7.7188 4.793-12.043 4.793z"/>
  <path d="m398.38 210c-4.3672 0-8.7344-1.625-12.133-4.8867l-13.859-13.328c-16.348-15.738-18.191-41.051-4.2891-58.891l21.602-27.703c3.5625-4.5781 4.4336-8.6328 3.9219-9.6055-4.4609-8.5781-1.1289-19.141 7.4531-23.602 8.5703-4.4922 19.148-1.1289 23.602 7.4336 7.3906 14.219 4.6406 31.891-7.3828 47.285l-21.594 27.703c-2.9414 3.7773-2.5469 8.7852 0.96484 12.148l13.852 13.328c6.9648 6.6992 7.1797 17.773 0.47656 24.746-3.4336 3.5781-8.0195 5.3711-12.613 5.3711z"/>
 </g>
</svg>
