<svg version="1.1" id="Layer_1" xmlns="http://www.w3.org/2000/svg" xmlns:xlink="http://www.w3.org/1999/xlink" x="0px" y="0px"
	 width="100%" viewBox="0 0 688 448" enable-background="new 0 0 688 448" xml:space="preserve">
<path fill="#000000" opacity="1.000000" stroke="none" 
	d="
M190.806061,267.971710 
	C202.588272,226.752106 226.233200,194.775421 262.191254,172.185165 
	C284.125610,158.405167 308.173309,150.553650 334.073914,148.670120 
	C387.995605,144.748825 433.272400,162.969467 469.322693,202.988525 
	C493.722839,230.074875 507.107391,262.294800 509.224030,298.860443 
	C509.491089,303.473389 511.661682,303.886719 515.235046,303.878082 
	C543.226868,303.810272 571.218933,303.822784 599.210876,303.810425 
	C600.043945,303.810028 600.877136,303.802338 601.710144,303.807770 
	C607.510254,303.845673 610.794189,306.106628 610.812805,310.071472 
	C610.831665,314.091339 607.766602,316.229279 601.693237,316.230499 
	C530.380310,316.244965 459.067413,316.238525 387.754486,316.237701 
	C290.282410,316.236603 192.810303,316.236115 95.338219,316.233612 
	C87.876083,316.233429 84.892342,314.464935 84.838448,310.033875 
	C84.784508,305.599182 87.747368,303.821472 95.310310,303.818817 
	C123.302269,303.808990 151.294601,303.739227 179.285797,303.885162 
	C183.774414,303.908600 185.632233,302.877167 185.962357,297.876556 
	C186.618484,287.938049 188.014420,278.023743 190.806061,267.971710 
z"/>
<path fill="#000000" opacity="1.000000" stroke="none" 
	d="
M235.000000,330.907623 
	C315.491089,330.905823 395.482147,330.895142 475.473236,330.934570 
	C479.232635,330.936401 483.178864,330.080841 486.618744,332.610077 
	C487.043274,332.922241 487.901733,332.871277 488.482269,332.710724 
	C499.929199,329.545013 511.360046,330.847687 522.947144,332.022217 
	C527.452393,332.478882 532.351624,330.644592 537.165222,330.916840 
	C539.145691,331.028900 541.197327,331.039734 543.072327,331.589020 
	C545.956909,332.434082 547.314575,334.650024 547.208618,337.682526 
	C547.101318,340.755524 545.531921,342.726349 542.529053,343.295166 
	C540.580444,343.664246 538.526978,344.008392 536.583740,343.792969 
	C522.930298,342.279114 509.251129,344.226135 495.640137,343.529694 
	C479.672302,342.712646 463.798615,344.566833 447.848572,344.038727 
	C431.701233,343.504089 415.522705,343.911591 399.357849,343.904816 
	C383.192963,343.898071 367.028107,343.884399 350.863220,343.882904 
	C334.531708,343.881378 318.200165,343.893250 301.868652,343.895264 
	C285.703766,343.897247 269.538910,343.895294 253.374023,343.892944 
	C237.209152,343.890594 221.044266,343.884247 204.879395,343.882111 
	C188.714523,343.879944 172.549515,343.911591 156.384903,343.845886 
	C154.074875,343.836487 151.699051,343.621155 149.474457,343.039307 
	C146.548965,342.274139 145.089188,339.969635 145.247375,337.013519 
	C145.390915,334.330963 146.762543,332.337402 149.567352,331.530762 
	C152.021347,330.825012 154.513916,330.892975 157.008545,330.892822 
	C182.839035,330.891113 208.669510,330.901459 235.000000,330.907623 
z"/>
<path fill="#000000" opacity="1.000000" stroke="none" 
	d="
M105.886948,73.256424 
	C84.457504,72.560265 63.510639,71.888039 42.565926,71.154373 
	C36.861439,70.954552 32.312622,67.426407 31.043915,62.454098 
	C29.749756,57.382046 32.189354,51.587502 37.238293,49.024593 
	C40.017986,47.613583 40.911278,44.818432 42.873215,43.005093 
	C49.007565,37.335342 53.219971,30.908318 55.975742,22.840759 
	C58.142151,16.498568 65.970238,13.646894 72.786179,14.981982 
	C79.708092,16.337826 84.747795,20.404385 86.177032,27.475203 
	C87.157883,32.327694 88.768066,35.600502 94.035416,36.928837 
	C98.248428,37.991287 100.093506,41.856968 101.125305,45.905819 
	C101.941498,49.108582 103.866554,50.624920 107.260574,50.419292 
	C116.007027,49.889389 121.659782,54.343113 121.716270,61.687107 
	C121.771248,68.835899 116.591019,73.167458 107.868355,73.264122 
	C107.369102,73.269653 106.869675,73.259872 105.886948,73.256424 
z"/>
<path fill="#000000" opacity="1.000000" stroke="none" 
	d="
M389.999878,374.425598 
	C350.029816,374.424072 310.559814,374.425659 271.089783,374.418518 
	C251.626221,374.414978 232.162659,374.396881 212.699097,374.380981 
	C210.363434,374.379089 207.981842,374.478546 206.052109,372.815155 
	C202.677734,369.906616 203.742645,364.305115 208.006516,362.578522 
	C208.766037,362.270966 209.614227,362.016815 210.421341,362.017181 
	C222.882721,362.022766 235.352859,361.826935 247.800079,362.267700 
	C251.491882,362.398438 255.059875,361.832367 258.703979,361.837250 
	C325.486389,361.926788 392.268982,361.915283 459.051514,361.926147 
	C460.050720,361.926300 461.052155,361.897552 462.048798,361.951660 
	C466.652740,362.201630 469.450470,364.688110 469.154907,368.530029 
	C468.819611,372.888885 465.978485,374.386139 461.945801,374.386017 
	C438.130493,374.385437 414.315186,374.409424 389.999878,374.425598 
z"/>
<path fill="#000000" opacity="1.000000" stroke="none" 
	d="
M313.000000,405.987488 
	C292.838562,406.018585 273.177124,406.052734 253.515686,406.074860 
	C252.018219,406.076538 250.483002,406.189087 249.030731,405.909882 
	C245.641006,405.258179 243.728607,403.089020 243.847336,399.609833 
	C243.957718,396.375885 245.813171,394.364197 249.050446,393.859924 
	C250.357254,393.656372 251.709167,393.702209 253.040543,393.702148 
	C314.358856,393.698944 375.677185,393.703156 436.995514,393.707581 
	C437.828583,393.707642 438.661896,393.737183 439.494720,393.726379 
	C443.773712,393.670807 446.153473,395.778137 446.114532,400.051025 
	C446.075989,404.281433 443.243530,405.795685 439.460785,405.848358 
	C430.465729,405.973663 421.469421,406.074066 412.473633,406.072998 
	C379.482422,406.069153 346.491211,406.019775 313.000000,405.987488 
z"/>
<path fill="#000000" opacity="1.000000" stroke="none" 
	d="
M615.199585,233.220383 
	C617.532959,229.956650 619.591492,226.963898 622.805847,224.957779 
	C624.766968,223.733795 625.381531,221.687042 625.758850,219.445984 
	C626.756348,213.521652 631.421204,209.392120 636.920654,209.327957 
	C642.749390,209.259918 647.023315,212.841782 648.262939,219.091690 
	C648.863586,222.120209 650.122620,224.302795 653.285645,225.214462 
	C656.378723,226.105972 658.449890,228.180405 659.182129,231.384369 
	C659.952026,234.753052 662.238647,235.718460 665.420471,235.878937 
	C671.606445,236.190872 674.509033,238.745743 674.450928,243.457733 
	C674.393799,248.096100 670.733154,251.133438 664.587036,250.951721 
	C648.647644,250.480484 632.714172,249.798859 616.780823,249.141495 
	C612.919128,248.982162 610.023254,247.174362 609.049316,243.273758 
	C607.773987,238.166534 611.254272,235.709702 615.199585,233.220383 
z"/>
<path fill="#000000" opacity="1.000000" stroke="none" 
	d="
M374.000061,422.668091 
	C382.830383,422.670624 391.160736,422.661743 399.490997,422.679779 
	C407.101196,422.696228 410.023743,424.370789 410.123718,428.721985 
	C410.225128,433.135162 407.177887,434.993103 399.671783,434.996124 
	C367.683441,435.009064 335.695129,435.005127 303.706787,435.005280 
	C298.875214,435.005280 294.043457,435.019806 289.212158,434.982086 
	C282.696503,434.931244 279.753265,432.916260 279.843781,428.635223 
	C279.930786,424.522644 282.683746,422.690491 289.030762,422.685577 
	C317.187195,422.663910 345.343628,422.671448 374.000061,422.668091 
z"/>
<path fill="#000000" opacity="1.000000" stroke="none" 
	d="
M566.739624,176.523132 
	C570.760254,174.353317 574.327698,174.078781 576.490906,178.266830 
	C578.612000,182.373428 576.399231,185.211700 572.815186,187.277756 
	C556.805054,196.506912 540.822021,205.783218 524.784607,214.964615 
	C520.416687,217.465256 516.445374,216.771347 514.702698,213.513290 
	C512.892578,210.129044 514.237732,206.745102 518.778076,204.114319 
	C534.625854,194.931641 550.523254,185.834488 566.739624,176.523132 
z"/>
<path fill="#000000" opacity="1.000000" stroke="none" 
	d="
M128.345551,176.448715 
	C144.827469,185.866791 160.993790,195.069992 177.097534,204.381409 
	C181.306595,206.815155 182.664459,210.861023 180.315933,213.933365 
	C177.579697,217.512878 174.102356,217.083038 170.555420,215.033340 
	C154.594330,205.809769 138.619812,196.609406 122.662567,187.379211 
	C119.241493,185.400360 116.527260,182.826309 118.676704,178.541122 
	C120.748711,174.410294 124.235268,174.328171 128.345551,176.448715 
z"/>
<path fill="#000000" opacity="1.000000" stroke="none" 
	d="
M351.027283,116.258942 
	C344.428558,117.875145 341.711487,115.972862 341.683899,109.736206 
	C341.600647,90.912201 341.667938,72.087570 341.657196,53.263195 
	C341.654907,49.219326 343.239075,46.387856 347.540802,46.023598 
	C351.176910,45.715702 353.972534,48.754311 353.996674,53.350269 
	C354.095642,72.173851 354.044312,90.998329 354.008057,109.822395 
	C354.003448,112.216560 353.386963,114.450554 351.027283,116.258942 
z"/>
<path fill="#000000" opacity="1.000000" stroke="none" 
	d="
M237.829407,132.117767 
	C230.188263,118.835320 222.687271,105.894714 215.261612,92.911041 
	C211.918503,87.065666 212.065765,83.479393 215.502808,81.475601 
	C219.209595,79.314545 222.389542,80.996460 225.862717,86.996666 
	C234.521057,101.954643 243.169678,116.918251 251.817490,131.882324 
	C252.316376,132.745636 252.806396,133.617081 253.243393,134.512619 
	C254.832489,137.769318 254.634033,140.880508 251.385452,142.805771 
	C248.072479,144.769150 244.904648,144.011154 242.761627,140.634460 
	C241.070450,137.969696 239.579910,135.177597 237.829407,132.117767 
z"/>
<path fill="#000000" opacity="1.000000" stroke="none" 
	d="
M459.024414,105.077850 
	C462.939209,98.287338 466.658539,91.806313 470.388702,85.331551 
	C472.406250,81.829552 475.084747,79.536896 479.344604,81.370918 
	C482.718018,82.823288 483.460938,86.899612 480.927185,91.353447 
	C471.813110,107.374191 462.562042,123.317139 453.324463,139.267288 
	C452.335449,140.974976 451.320587,142.856277 449.094086,143.203064 
	C446.581329,143.594467 444.043457,143.678848 442.285004,141.322678 
	C440.433411,138.841675 440.945679,136.309097 442.363281,133.852142 
	C447.841217,124.357727 453.341553,114.876251 459.024414,105.077850 
z"/>
<path fill="#000000" opacity="1.000000" stroke="none" 
	d="
M151.061752,250.820465 
	C153.356049,251.508316 155.302048,251.975800 157.157913,252.680634 
	C160.684082,254.019806 161.924957,256.802124 161.057144,260.280060 
	C160.199509,263.717194 157.484177,265.260071 154.192719,264.455139 
	C144.365906,262.051971 134.556931,259.531891 124.867676,256.633911 
	C121.458794,255.614365 120.079948,252.379669 121.276993,248.928802 
	C122.494751,245.418167 125.494232,244.323532 128.971024,245.164261 
	C136.227417,246.918930 143.441360,248.849182 151.061752,250.820465 
z"/>
<path fill="#000000" opacity="1.000000" stroke="none" 
	d="
M562.219360,246.062180 
	C569.803345,244.305176 573.236450,245.392120 574.255432,249.634399 
	C575.237366,253.722580 573.106018,255.965256 565.963196,257.985901 
	C558.448547,260.111755 550.916931,262.190308 543.339417,264.075256 
	C540.252930,264.843048 536.974670,265.202087 534.839294,261.854218 
	C532.457458,258.119934 534.009460,253.966522 538.750244,252.529770 
	C546.381714,250.216934 554.125244,248.273987 562.219360,246.062180 
z"/>
<path fill="#000000" opacity="1.000000" stroke="none" 
	d="
M395.892303,106.046494 
	C397.546204,100.052864 399.123505,94.460899 400.637360,88.851814 
	C401.694580,84.934563 403.978058,82.481880 408.190918,83.672531 
	C412.203522,84.806587 413.465424,87.925102 412.417664,91.923393 
	C410.103333,100.754868 407.784607,109.585266 405.435852,118.407616 
	C404.394318,122.319771 401.944977,124.484428 397.772400,123.724213 
	C394.094360,123.054115 392.399078,119.461998 393.480530,115.103027 
	C394.199921,112.203247 395.015869,109.327408 395.892303,106.046494 
z"/>
<path fill="#000000" opacity="1.000000" stroke="none" 
	d="
M180.099365,149.613617 
	C181.262787,142.220078 185.965927,140.281921 191.186356,145.081421 
	C197.918060,151.270340 204.307541,157.841568 210.670822,164.416153 
	C213.210312,167.039948 214.061050,170.366516 211.302460,173.374680 
	C208.773041,176.132950 205.408157,176.191544 202.816193,173.715317 
	C195.480331,166.707001 188.406281,159.423874 181.275040,152.203644 
	C180.724609,151.646362 180.532990,150.734695 180.099365,149.613617 
z"/>
<path fill="#000000" opacity="1.000000" stroke="none" 
	d="
M301.907959,115.372696 
	C302.618988,119.987640 301.347839,123.272163 296.803833,123.838760 
	C292.538422,124.370598 290.693237,121.409096 289.714752,117.669235 
	C287.532410,109.328537 285.215424,101.023041 283.036743,92.681396 
	C282.020264,88.789467 282.364410,85.130379 286.822815,83.722923 
	C291.368622,82.287865 293.655548,85.108826 294.760010,89.050430 
	C297.175629,97.671036 299.468475,106.326027 301.907959,115.372696 
z"/>
<path fill="#000000" opacity="1.000000" stroke="none" 
	d="
M491.767029,174.228561 
	C488.355377,175.907227 485.383575,175.671539 483.453003,172.810669 
	C481.400604,169.769318 482.448212,166.738358 484.910248,164.265671 
	C491.351196,157.796783 497.824066,151.359375 504.319672,144.945343 
	C507.028168,142.270874 510.192474,141.519180 513.178650,144.180069 
	C516.479797,147.121704 515.701111,150.522491 512.922546,153.351334 
	C506.067627,160.330200 499.056458,167.155548 491.767029,174.228561 
z"/>
</svg>