<svg version="1.1" id="Layer_1" xmlns="http://www.w3.org/2000/svg" xmlns:xlink="http://www.w3.org/1999/xlink" x="0px" y="0px"
	 width="100%" viewBox="0 0 544 480" enable-background="new 0 0 544 480" xml:space="preserve">
<path fill="#000000" opacity="1.000000" stroke="none" 
	d="
M478.222046,242.634644 
	C514.988037,262.711853 536.835571,293.112396 541.875916,334.333618 
	C546.082642,368.736755 536.465393,399.726196 513.636230,426.038666 
	C493.323395,449.450928 467.392487,462.993378 436.584747,465.991180 
	C406.496490,468.918945 378.678131,461.843781 354.163391,443.627869 
	C350.972046,441.256531 348.654816,440.799011 344.876099,442.687836 
	C315.750916,457.246216 284.931610,465.913239 252.288147,466.295532 
	C194.280914,466.974854 141.402985,451.260803 95.989082,414.204285 
	C65.471535,389.302765 44.178680,357.648499 30.598307,320.730743 
	C18.856659,288.811432 14.613990,255.740189 16.962847,222.015823 
	C20.085981,177.174606 34.247971,135.972000 61.433075,99.836647 
	C89.233643,62.883209 125.659477,37.894859 169.614258,23.742886 
	C194.501312,15.730088 220.094406,11.126243 246.141098,11.252245 
	C280.376129,11.417860 313.140045,19.355799 343.862640,34.705414 
	C385.057129,55.287037 417.321808,85.492981 440.470093,125.376183 
	C455.715515,151.643280 464.875519,179.972229 469.061859,209.947037 
	C470.002411,216.681610 470.556519,223.493195 470.432129,230.347565 
	C470.332733,235.824493 471.007935,241.138855 478.222046,242.634644 
M314.995514,303.624146 
	C333.510284,261.979950 365.026245,237.289719 410.331268,230.747543 
	C413.838715,230.241074 414.967773,228.744019 414.623322,225.537460 
	C414.250092,222.063461 414.040894,218.563797 413.492523,215.117920 
	C408.551880,184.070297 396.891754,155.948669 377.002441,131.397736 
	C371.878601,125.072990 371.978241,124.992249 365.318665,129.406235 
	C359.443756,133.300125 352.557159,131.009399 350.929810,124.595207 
	C349.915833,120.598740 351.509247,117.254288 354.191772,114.605057 
	C357.109436,111.723602 356.613190,109.747749 353.635864,107.369133 
	C345.290405,100.701820 336.650635,94.499741 327.343536,89.221817 
	C305.868195,77.043419 282.715912,70.308464 258.291565,67.470589 
	C253.688354,66.935738 252.143967,68.261459 252.190521,73.030220 
	C252.251312,79.259468 248.486435,83.081177 243.418381,83.162468 
	C237.828735,83.252129 234.302444,79.654274 233.723648,73.270988 
	C233.154556,66.994675 233.027863,66.892639 226.887848,67.781639 
	C225.898743,67.924850 224.914047,68.108269 223.920975,68.212982 
	C189.429245,71.849884 159.171768,85.348244 132.531250,107.342621 
	C129.780228,109.613853 128.754852,111.325241 131.759949,114.507660 
	C136.464523,119.489853 136.560516,124.945129 132.811707,128.752777 
	C129.201035,132.420120 123.887375,132.466629 118.948669,127.973053 
	C115.443886,124.784149 113.549454,125.690094 111.018242,128.900925 
	C83.323654,164.031494 69.731781,203.693604 72.074432,248.605865 
	C73.869339,283.017151 85.407219,313.898163 105.466408,341.718842 
	C108.338310,345.701996 111.175514,349.786163 114.807396,352.980865 
	C117.559563,351.064209 119.898758,349.175232 122.477661,347.707397 
	C125.453720,346.013519 128.582947,346.240845 131.466553,348.150787 
	C134.551010,350.193848 135.638824,353.130676 135.326584,356.778107 
	C135.079300,359.666565 133.490936,361.818939 131.594971,363.654388 
	C128.784897,366.374756 129.425705,368.213135 132.262482,370.440552 
	C139.213715,375.898560 146.209091,381.272217 153.763779,385.884521 
	C176.612061,399.833954 201.449707,407.757965 228.009186,410.567261 
	C231.858017,410.974396 233.840607,410.295166 233.816269,405.702301 
	C233.781998,399.232330 236.235214,396.137909 240.898499,395.113068 
	C247.378494,393.689026 252.136124,397.743561 252.216095,405.420898 
	C252.259842,409.620392 253.614120,411.102631 257.771423,410.611359 
	C275.879761,408.471313 293.492371,404.530212 310.324341,397.285706 
	C314.217926,395.609894 315.139893,393.899780 313.664185,389.788147 
	C303.409546,361.216278 303.900757,332.698608 314.995514,303.624146 
M324.403748,347.656342 
	C324.880615,359.339935 326.409515,370.861542 330.447937,381.891632 
	C346.896973,426.818634 391.425049,453.427673 438.863861,446.769012 
	C493.684021,439.074249 532.135010,385.977631 522.760315,331.440430 
	C513.404663,277.013641 462.112976,242.115158 412.079132,249.222580 
	C377.854462,254.084259 352.636200,271.944672 336.105682,302.211731 
	C328.525848,316.090302 325.419220,331.146576 324.403748,347.656342 
M399.338837,100.160042 
	C346.181519,43.578938 281.198120,20.538780 204.602142,33.596920 
	C156.627625,41.775654 116.602562,65.669701 84.821480,102.438652 
	C56.419098,135.298660 39.645210,173.591644 35.173969,217.011139 
	C32.297607,244.942993 33.772747,272.542389 42.239838,299.473694 
	C57.935425,349.396851 88.758163,387.660461 132.698837,415.558990 
	C164.428268,435.704468 199.242355,446.742706 236.726425,448.515808 
	C267.102356,449.952667 296.356384,444.179810 324.233063,431.896637 
	C327.675934,430.379639 331.401764,429.265198 334.703827,426.336365 
	C332.198212,422.885437 329.503418,419.732391 327.455841,416.203796 
	C325.212250,412.337372 322.792938,412.158417 318.866119,413.777649 
	C290.187317,425.603424 260.541138,431.672455 229.288116,429.502563 
	C201.174103,427.550598 174.998764,419.676941 150.694046,405.666687 
	C115.299706,385.263855 88.940964,356.284851 71.304451,319.558838 
	C52.142803,279.656891 46.867958,237.957184 57.140591,194.675110 
	C66.015045,157.284058 85.476944,125.930939 113.030785,99.535484 
	C145.733948,68.207184 185.055481,51.391800 230.120422,48.905582 
	C267.518585,46.842342 302.978668,54.933479 335.770477,73.277580 
	C379.158203,97.549149 409.483978,132.813812 424.783325,180.507584 
	C429.485077,195.164810 431.882721,210.228271 433.258270,225.494232 
	C433.440521,227.516495 433.223755,229.678802 435.933380,230.121643 
	C440.951050,230.941742 445.980438,231.689957 452.076141,232.633987 
	C450.025940,181.931732 432.324677,138.415695 399.338837,100.160042 
z"/>
<path fill="#000000" opacity="1.000000" stroke="none" 
	d="
M233.713501,205.930359 
	C233.711105,174.470016 233.739716,143.497192 233.675568,112.524544 
	C233.665222,107.527222 235.124115,103.582954 240.220612,102.004761 
	C246.694595,100.000008 252.201736,104.197006 252.267090,111.309135 
	C252.394043,125.129143 252.305084,138.951111 252.308563,152.772278 
	C252.313446,172.255142 252.370911,191.738251 252.276398,211.220627 
	C252.261383,214.317856 252.957977,216.309494 255.896271,218.031006 
	C264.428223,223.029785 268.774750,233.309189 267.162659,243.378998 
	C265.704193,252.489136 257.712311,261.049255 248.742569,263.108765 
	C238.914185,265.365417 228.331161,261.706299 222.910828,253.095428 
	C220.322540,248.983597 217.437073,248.208649 213.121628,248.232132 
	C186.312668,248.377945 159.502533,248.315247 132.692780,248.302765 
	C128.018448,248.300583 123.543144,247.611588 121.385353,242.701965 
	C118.476868,236.084290 122.930862,230.000793 131.023499,229.745377 
	C138.176575,229.519623 145.342621,229.708679 152.502945,229.708466 
	C173.151443,229.707825 193.800171,229.652863 214.448181,229.752121 
	C217.875931,229.768585 220.434937,229.285690 222.169281,225.778046 
	C223.302048,223.487061 225.239868,221.010117 227.455185,219.950378 
	C233.540649,217.039261 234.415573,212.209076 233.713501,205.930359 
M241.906189,244.587585 
	C247.205368,244.128616 249.589203,241.861343 248.713623,237.822021 
	C247.905670,234.094727 245.249512,232.772522 241.666077,233.360809 
	C239.336761,233.743195 237.802811,235.311829 237.407562,237.615540 
	C236.863464,240.786713 238.369858,243.000626 241.906189,244.587585 
z"/>
<path fill="#000000" opacity="1.000000" stroke="none" 
	d="
M443.708069,353.326904 
	C455.017853,358.586823 466.319733,359.509277 478.087982,356.652618 
	C487.416962,354.388092 493.027130,360.650391 490.151001,369.767151 
	C482.576141,393.778015 460.288208,411.446594 435.677429,414.463440 
	C395.303284,419.412628 364.755768,389.865417 358.753174,355.282990 
	C353.195740,323.265411 368.761597,298.489655 396.598358,284.156952 
	C398.632172,283.109802 400.975922,282.548431 403.242065,282.088989 
	C412.558777,280.200012 417.769104,285.564148 415.695374,294.795074 
	C410.239075,319.083008 421.037415,341.851349 443.708069,353.326904 
M396.546417,318.724854 
	C396.084534,315.201416 395.622620,311.677979 395.137512,307.977234 
	C381.423065,315.923096 372.960388,337.197418 376.612579,353.699432 
	C381.515625,375.853302 403.458008,395.265747 425.138428,396.630310 
	C440.070435,397.570129 459.650391,387.890228 463.673859,377.477875 
	C428.391907,373.163147 404.918701,355.150970 396.546417,318.724854 
z"/>
</svg>