<?xml version="1.0" standalone="no"?>
<!DOCTYPE svg PUBLIC "-//W3C//DTD SVG 20010904//EN"
 "http://www.w3.org/TR/2001/REC-SVG-20010904/DTD/svg10.dtd">
<svg version="1.0" xmlns="http://www.w3.org/2000/svg"
 width="700.000000pt" height="700.000000pt" viewBox="0 0 700.000000 700.000000"
 preserveAspectRatio="xMidYMid meet">

<g transform="translate(0.000000,700.000000) scale(0.100000,-0.100000)"
fill="#000000" stroke="none">
<path d="M4101 6543 c-14 -12 -39 -72 -71 -167 -34 -102 -58 -159 -76 -178
-20 -20 -67 -41 -181 -79 -165 -55 -183 -67 -183 -127 0 -52 32 -74 165 -117
134 -42 182 -65 207 -99 9 -13 38 -97 64 -187 25 -90 53 -174 61 -187 30 -47
100 -48 135 -1 15 20 47 120 99 312 20 75 56 101 212 153 160 53 187 70 187
124 0 61 -18 74 -172 126 -79 26 -155 56 -171 66 -36 25 -46 47 -97 203 -26
78 -52 138 -66 152 -28 28 -83 31 -113 6z"/>
<path d="M2049 6375 c-297 -131 -550 -374 -698 -672 -113 -228 -158 -444 -148
-698 16 -375 157 -697 421 -960 248 -247 547 -388 893 -420 l71 -7 43 64 c129
189 343 338 577 399 104 28 309 35 416 16 l79 -14 30 34 c54 62 167 220 167
235 0 2 -91 3 -203 4 -169 0 -218 4 -304 22 -662 143 -1144 629 -1275 1286
-18 90 -22 146 -23 296 0 181 7 249 41 388 9 35 14 65 13 67 -2 1 -47 -16
-100 -40z"/>
<path d="M4900 5451 l0 -89 83 2 82 1 5 65 c9 114 12 110 -86 110 l-84 0 0
-89z"/>
<path d="M4290 5099 l0 -90 83 3 82 3 3 88 3 87 -86 0 -85 0 0 -91z"/>
<path d="M4640 4665 l0 -85 85 0 85 0 0 85 0 85 -85 0 -85 0 0 -85z"/>
<path d="M4625 4184 c-194 -34 -385 -121 -526 -238 l-36 -30 97 -95 c103 -102
116 -127 94 -179 -14 -35 -41 -52 -81 -52 -22 0 -49 20 -123 93 -109 107 -203
167 -326 208 -404 136 -836 -47 -1019 -432 -39 -83 -75 -212 -75 -271 0 -116
-101 -169 -164 -85 -19 25 -19 32 -7 118 6 50 10 94 7 96 -11 11 -207 2 -260
-12 -139 -37 -282 -141 -356 -259 -36 -58 -46 -64 -145 -91 -178 -49 -317
-186 -369 -364 -20 -69 -21 -199 -1 -276 46 -177 183 -314 370 -372 57 -17
135 -18 1640 -18 1724 0 1634 -3 1816 56 582 187 913 810 743 1398 -160 550
-721 904 -1279 805z"/>
</g>
</svg>
