<svg version="1.1" id="Layer_1" xmlns="http://www.w3.org/2000/svg" xmlns:xlink="http://www.w3.org/1999/xlink" x="0px" y="0px"
	 width="100%" viewBox="0 0 496 352" enable-background="new 0 0 496 352" xml:space="preserve">
<path fill="#000000" opacity="1.000000" stroke="none" 
	d="
M425.866882,231.716019 
	C422.553253,240.631271 417.629700,248.099167 411.575714,254.857590 
	C407.975311,258.876923 402.501007,259.679077 399.166687,256.732361 
	C395.837677,253.790268 395.619720,248.746689 399.268036,244.638016 
	C407.936005,234.876266 413.246429,223.694260 414.876556,210.717972 
	C417.472595,190.052887 411.138611,172.299210 396.074799,158.341019 
	C377.998535,141.591461 356.552124,136.601364 333.120728,145.059860 
	C309.949615,153.424408 297.024109,170.887985 292.598938,194.794952 
	C291.880951,198.674072 292.393463,202.772186 292.227997,206.764542 
	C292.013458,211.942078 288.862976,215.232315 284.303802,215.187759 
	C280.034180,215.146027 276.973846,211.842239 276.677887,206.955139 
	C273.707520,157.908325 316.501251,119.033836 365.312714,126.437920 
	C405.282928,132.500900 433.571899,167.208984 431.183868,207.569077 
	C430.702942,215.696945 429.201691,223.746460 425.866882,231.716019 
z"/>
<path fill="#000000" opacity="1.000000" stroke="none" 
	d="
M274.000000,247.937897 
	C232.873413,247.927475 192.246811,247.927490 151.620255,247.886185 
	C148.630936,247.883148 145.636276,247.649353 142.654190,247.401520 
	C139.164673,247.111511 137.738449,244.820206 137.743164,241.624939 
	C137.747925,238.388504 139.413666,236.294464 142.732925,235.801926 
	C143.714157,235.656311 144.726013,235.687683 145.723846,235.687653 
	C211.991867,235.685776 278.259888,235.695099 344.527893,235.674011 
	C347.871887,235.672958 350.980469,235.932114 352.128815,239.782227 
	C353.302399,243.717117 351.468292,246.822083 347.399689,247.578384 
	C345.456665,247.939575 343.425476,247.912216 341.434082,247.914398 
	C319.122711,247.938797 296.811371,247.934616 274.000000,247.937897 
z"/>
<path fill="#000000" opacity="1.000000" stroke="none" 
	d="
M63.272102,184.244232 
	C59.526718,184.796234 58.641510,183.272629 58.585117,180.067673 
	C58.370274,167.857773 58.270081,167.764511 46.005154,167.231674 
	C42.799591,167.092422 41.643776,165.972153 41.603451,162.772858 
	C41.559238,159.264343 43.327587,158.727493 46.260822,158.642120 
	C58.406136,158.288620 58.395336,158.224274 58.672478,146.122360 
	C58.702042,144.831482 58.911980,143.544754 59.028828,142.352127 
	C66.361710,140.877747 67.133850,141.439163 67.147247,147.980957 
	C67.169022,158.619980 67.169701,158.573410 78.160706,158.732727 
	C80.285446,158.763535 83.017929,157.710144 83.964012,161.033539 
	C85.057343,164.874176 83.494164,167.052856 79.438080,167.222992 
	C67.680893,167.716202 67.672302,167.715759 67.088974,179.219421 
	C66.968056,181.604126 67.068970,184.082886 63.272102,184.244232 
z"/>
<path fill="#000000" opacity="1.000000" stroke="none" 
	d="
M49.680264,119.928314 
	C49.399109,124.131996 49.206547,127.954849 49.242348,131.775558 
	C49.270641,134.794968 47.824432,135.935852 44.969097,135.931137 
	C42.190136,135.926529 40.439487,135.010025 40.693604,131.880066 
	C40.720413,131.549866 40.691078,131.214676 40.681290,130.881989 
	C40.320663,118.630112 40.320454,118.635277 27.895180,118.386826 
	C26.755510,118.364044 25.618265,118.220032 24.557318,118.138275 
	C23.627396,114.714355 23.627396,114.714355 24.260534,110.847488 
	C28.095230,110.634491 32.066589,109.998123 35.961269,110.312302 
	C40.007462,110.638710 40.924328,108.975655 40.703480,105.463242 
	C40.526302,102.645401 40.773369,99.802933 40.656471,96.978668 
	C40.540104,94.167259 41.891933,93.031898 44.538334,93.069984 
	C47.062313,93.106300 49.260136,93.500496 49.223396,96.801414 
	C49.190056,99.796516 49.346771,102.796341 49.235409,105.787224 
	C49.126568,108.710297 50.302563,110.071327 53.295013,110.094147 
	C56.284756,110.116936 59.273769,110.578308 62.260548,110.552429 
	C65.376923,110.525436 66.237007,112.032249 66.236984,114.883018 
	C66.236954,117.964050 64.441154,118.225456 62.037521,118.441490 
	C57.981342,118.806068 53.733871,117.177742 49.680264,119.928314 
z"/>
<path fill="#000000" opacity="1.000000" stroke="none" 
	d="
M105.783669,98.250290 
	C105.454948,94.303688 107.212334,93.036903 110.516403,93.040359 
	C114.122345,93.044128 114.311035,95.263542 114.365936,98.032349 
	C114.613365,110.510857 114.661133,110.682632 127.098137,110.518623 
	C133.758987,110.430779 130.681793,114.712685 131.097107,117.819557 
	C126.757393,118.980896 122.594368,118.246269 118.495575,118.323730 
	C115.521233,118.379944 114.230659,119.523369 114.322784,122.497055 
	C114.420715,125.658211 114.261856,128.827072 114.348862,131.988892 
	C114.424225,134.727463 113.222404,135.998199 110.488449,135.914703 
	C107.930153,135.836594 105.804214,135.324539 105.816971,132.094818 
	C105.829460,128.930756 105.704308,125.764549 105.782440,122.602814 
	C105.854935,119.669456 104.606834,118.295753 101.626534,118.379860 
	C98.631218,118.464378 95.630058,118.333450 92.634102,118.406067 
	C89.888344,118.472610 88.764153,117.270760 88.814774,114.502495 
	C88.864235,111.797073 89.919113,110.445686 92.689400,110.609512 
	C93.186981,110.638931 93.688332,110.601906 94.187958,110.599487 
	C107.581223,110.534584 105.616043,111.749954 105.783669,98.250290 
z"/>
<path fill="#000000" opacity="1.000000" stroke="none" 
	d="
M434.249084,293.782043 
	C428.397125,288.075287 422.831787,282.583954 417.188843,277.173584 
	C414.158295,274.267944 412.987061,271.075073 415.761780,267.506714 
	C417.953308,264.688324 422.348663,265.129059 425.841888,268.422760 
	C432.495239,274.696045 439.237274,280.890533 445.607849,287.443085 
	C450.017822,291.978973 448.648621,297.629486 443.340729,298.612396 
	C441.249969,298.999573 439.370209,298.537506 437.778137,297.103729 
	C436.666107,296.102264 435.593567,295.056915 434.249084,293.782043 
z"/>
<path fill="#000000" opacity="1.000000" stroke="none" 
	d="
M429.093689,134.087769 
	C426.641327,136.614197 424.608673,139.073883 422.230774,141.135315 
	C419.564728,143.446503 416.463074,144.020676 413.767609,141.164276 
	C411.257751,138.504517 411.017731,135.362015 413.580048,132.635117 
	C420.531769,125.236946 427.566345,117.912483 434.727142,110.717125 
	C437.289276,108.142609 440.519196,107.902710 443.201477,110.560051 
	C446.005646,113.338165 445.902313,116.599854 443.226685,119.468201 
	C438.685852,124.336143 433.991119,129.060516 429.093689,134.087769 
z"/>
<path fill="#000000" opacity="1.000000" stroke="none" 
	d="
M459.008026,207.298645 
	C454.682709,207.290665 450.854828,207.330307 447.029114,207.256760 
	C443.403687,207.187057 441.459686,204.987152 441.200439,201.640991 
	C440.934387,198.207016 442.868683,195.467407 446.258942,195.334763 
	C457.057098,194.912247 467.875153,194.806442 478.682251,194.912201 
	C482.287567,194.947479 483.918243,197.886902 483.778229,201.160141 
	C483.619843,204.862305 480.985138,206.846130 477.469543,207.014786 
	C471.491089,207.301590 465.495056,207.222275 459.008026,207.298645 
z"/>
<path fill="#000000" opacity="1.000000" stroke="none" 
	d="
M260.235504,112.137024 
	C263.151825,111.924210 265.044708,113.226303 266.770752,114.877342 
	C273.149628,120.978958 279.549713,127.058784 285.890350,133.199905 
	C289.613159,136.805527 290.228180,140.453903 287.733490,143.218292 
	C285.040375,146.202560 281.251038,145.854355 277.307739,142.089462 
	C270.801483,135.877563 264.236969,129.717804 257.947205,123.291222 
	C253.723755,118.975922 254.604004,114.895279 260.235504,112.137024 
z"/>
<path fill="#000000" opacity="1.000000" stroke="none" 
	d="
M248.956085,198.704803 
	C251.935684,198.716232 254.429169,198.628311 256.908508,198.776764 
	C260.381042,198.984695 262.569031,200.899399 262.671326,204.399094 
	C262.771790,207.834656 260.871521,210.108414 257.370544,210.472855 
	C246.794830,211.573776 236.173096,211.352264 225.574799,211.056870 
	C222.188568,210.962509 220.174545,208.442139 220.412491,204.929718 
	C220.660492,201.268936 222.900955,199.142014 226.576614,199.036041 
	C233.869354,198.825760 241.167664,198.808167 248.956085,198.704803 
z"/>
<path fill="#000000" opacity="1.000000" stroke="none" 
	d="
M345.480469,111.215790 
	C343.067749,104.593185 344.258606,98.038795 343.853363,91.606796 
	C343.571350,87.130882 343.717468,82.625992 343.728851,78.134193 
	C343.738647,74.268921 345.514709,71.604080 349.504913,71.334122 
	C353.598450,71.057159 355.747589,73.692299 355.856537,77.458649 
	C356.154602,87.763779 356.414459,98.085083 356.141266,108.385445 
	C355.999969,113.712082 350.974548,115.042877 345.480469,111.215790 
z"/>
</svg>