<svg version="1.1" id="Layer_1" xmlns="http://www.w3.org/2000/svg" xmlns:xlink="http://www.w3.org/1999/xlink" x="0px" y="0px"
	 width="100%" viewBox="0 0 560 400" enable-background="new 0 0 560 400" xml:space="preserve">
<path fill="#000000" opacity="1.000000" stroke="none" 
	d="
M345.000000,225.969330 
	C392.821289,225.972168 440.142548,225.967865 487.463837,225.998123 
	C489.951599,225.999710 492.472168,226.093018 494.920227,226.493454 
	C500.666229,227.433319 503.757507,230.804626 504.144562,236.568741 
	C504.367371,239.887177 504.499115,243.255051 504.190094,246.555573 
	C503.740875,251.352966 505.506317,252.958450 510.369629,252.753754 
	C526.781006,252.062973 539.357788,259.236267 548.235107,272.758240 
	C564.267151,297.178528 548.209656,332.166931 519.333130,336.368500 
	C512.179688,337.409332 505.038208,337.357361 497.905762,337.111481 
	C493.584198,336.962494 491.362885,338.611725 489.406586,342.296478 
	C480.703674,358.688873 468.956696,372.581207 454.439850,384.196625 
	C450.717834,387.174744 446.941010,388.471619 442.157745,388.464813 
	C365.844177,388.356323 289.530365,388.394073 213.216629,388.394684 
	C164.062607,388.395050 114.908577,388.400513 65.754562,388.381958 
	C38.454594,388.371674 23.344671,373.503937 22.551205,345.933228 
	C21.784334,319.286652 38.099838,296.970398 63.713600,290.326324 
	C75.358200,287.305725 87.443489,287.190247 99.398560,286.767853 
	C108.102669,286.460327 116.453392,285.840668 124.540207,281.804230 
	C135.213699,276.476715 146.349472,278.275940 157.091141,282.152496 
	C161.995010,283.922272 166.127518,284.401520 171.208160,281.906891 
	C181.870087,276.671783 192.956024,278.118134 203.702057,282.295288 
	C208.230515,284.055603 212.078278,284.362579 216.848846,282.026733 
	C226.379059,277.360352 236.549118,277.617218 246.492432,281.285919 
	C252.838852,283.627472 258.814301,285.210724 265.436981,281.405457 
	C269.398895,279.129028 274.376160,278.832733 279.081299,279.011230 
	C282.533966,279.142242 283.749573,277.741577 283.703613,274.288391 
	C283.552826,262.959991 284.041443,251.611008 283.543793,240.302551 
	C283.023163,228.472610 289.412262,225.974854 298.013397,225.986008 
	C313.508911,226.006104 329.004456,225.977570 345.000000,225.969330 
M480.804138,299.451233 
	C483.585236,284.258026 482.318451,268.904572 482.702209,253.613068 
	C482.807251,249.428024 481.272858,248.135056 477.194366,248.141525 
	C421.538483,248.229889 365.882324,248.235504 310.226532,248.119522 
	C305.906219,248.110519 304.783813,249.836624 304.862152,253.761017 
	C305.081635,264.755005 304.803040,275.762970 305.191071,286.748810 
	C306.329102,318.966797 320.495789,344.783386 344.495331,365.676208 
	C346.118469,367.089264 347.832733,367.642303 349.942322,367.639008 
	C378.769989,367.594116 407.597748,367.584839 436.425476,367.598663 
	C438.855377,367.599823 440.934753,367.016724 442.858948,365.413849 
	C463.395233,348.306183 475.837921,326.513611 480.804138,299.451233 
M291.909973,323.374847 
	C290.088776,317.663849 288.403717,311.911194 287.511475,305.973541 
	C286.884003,301.797913 284.608368,300.042603 280.400360,299.988922 
	C272.515625,299.888336 266.365326,303.752472 263.279175,311.289368 
	C261.008240,316.835419 258.888611,322.443237 256.682495,328.016052 
	C253.820007,335.246918 247.877502,338.324646 241.710556,335.791382 
	C236.079315,333.478149 233.882935,326.876160 236.526794,319.997223 
	C238.319000,315.334229 240.142181,310.680664 242.081360,306.077576 
	C243.126923,303.595734 242.217606,302.486786 239.891495,301.614868 
	C230.625824,298.141846 221.096802,302.028595 217.107498,311.250763 
	C214.596176,317.056244 212.444473,323.016357 210.065063,328.880127 
	C207.222519,335.885284 201.363495,338.743988 194.984207,336.317902 
	C189.207306,334.120880 186.934692,327.849213 189.415833,320.811768 
	C191.394745,315.198792 193.432190,309.606445 195.414978,304.084808 
	C184.357361,297.924866 173.346848,301.838898 168.978943,313.116058 
	C166.935059,318.393005 165.043365,323.731659 162.886002,328.961182 
	C159.954895,336.066376 154.492493,338.730255 148.319580,336.286407 
	C141.987885,333.779633 139.780670,327.885040 142.451126,320.552155 
	C144.160507,315.858276 145.755692,311.115234 147.674698,306.507782 
	C149.100891,303.083588 147.782379,301.726257 144.604248,300.795471 
	C135.920975,298.252563 127.122147,301.845367 123.286301,310.171326 
	C120.435547,316.359009 118.316078,322.879761 115.595963,329.132538 
	C112.754929,335.663269 106.833511,338.199493 100.977509,335.744659 
	C95.624847,333.500793 93.444557,326.698730 95.941574,320.366669 
	C97.323273,316.862885 99.113632,313.474426 99.699005,309.229767 
	C91.252670,308.748444 83.243568,310.235443 75.186722,310.754333 
	C57.001556,311.925415 45.619625,325.240723 43.786999,342.096252 
	C42.855835,350.660583 44.483196,359.053131 52.230915,364.808624 
	C56.595425,368.050842 61.550198,366.683716 66.278404,366.687164 
	C145.925903,366.745667 225.573456,366.737640 305.221008,366.744293 
	C308.475525,366.744568 311.730042,366.744324 316.565613,366.744324 
	C305.592743,352.936646 297.463867,339.303436 291.909973,323.374847 
M522.145569,277.240692 
	C517.713562,274.413757 512.780273,274.184845 507.727020,274.308289 
	C505.102875,274.372437 504.297791,275.633270 504.250336,278.042572 
	C504.168610,282.189392 504.125214,286.328003 503.789612,290.484100 
	C503.122345,298.747467 501.350677,306.818817 499.736572,314.887268 
	C514.170776,318.213715 526.158081,313.789703 530.692200,303.733917 
	C535.104553,293.947937 532.180603,284.299500 522.145569,277.240692 
z"/>
<path fill="#000000" opacity="1.000000" stroke="none" 
	d="
M224.621979,145.355988 
	C217.147919,171.381866 193.215775,187.854492 165.605667,186.278946 
	C139.596603,184.794754 117.566689,164.520020 113.605042,138.421326 
	C108.748337,106.426056 128.921112,77.747360 160.725983,73.045502 
	C197.305618,67.637787 223.774643,93.631088 226.500000,123.256081 
	C227.184769,130.699722 226.404251,137.815704 224.621979,145.355988 
M161.780594,95.165947 
	C142.979691,99.854401 131.391708,118.360474 135.505127,137.128021 
	C138.975342,152.961060 155.804169,165.807510 171.509308,164.612152 
	C192.126251,163.042923 207.259430,144.837173 204.589157,124.815895 
	C201.850601,104.282822 183.419357,91.216331 161.780594,95.165947 
z"/>
<path fill="#000000" opacity="1.000000" stroke="none" 
	d="
M425.735107,141.983093 
	C425.643707,130.815552 430.514893,121.942123 436.469452,113.616364 
	C439.394928,109.525925 445.467926,108.903084 450.088379,111.502533 
	C454.348785,113.899429 456.469208,119.269005 454.567444,124.015465 
	C453.278137,127.233376 451.421143,130.242599 449.644989,133.242737 
	C445.978271,139.436356 446.622223,145.464096 450.725403,150.983139 
	C462.093567,166.273895 460.966797,181.882111 452.334534,197.770142 
	C449.400848,203.169708 443.266083,205.170059 437.722778,202.743225 
	C432.640533,200.518250 430.576385,194.805313 432.729492,188.787354 
	C433.457428,186.752777 434.285675,184.752945 435.105072,182.752380 
	C437.990906,175.706589 437.226349,169.114807 432.764771,162.924744 
	C428.360291,156.813889 426.161804,149.926865 425.735107,141.983093 
z"/>
<path fill="#000000" opacity="1.000000" stroke="none" 
	d="
M407.996277,187.720551 
	C406.627655,191.008636 405.527740,193.984085 404.144623,196.821503 
	C401.244629,202.770706 394.791016,205.294052 389.035767,202.879669 
	C383.706329,200.643921 381.252228,194.174225 384.342010,188.040024 
	C389.384125,178.029770 390.150055,168.750458 382.056030,159.952408 
	C381.302460,159.133286 380.996368,157.891037 380.523102,156.827179 
	C375.540710,145.627136 375.830933,134.570923 381.553650,123.719482 
	C383.105438,120.777039 384.746979,117.863312 386.586029,115.095009 
	C390.034119,109.904648 395.733154,108.494682 400.967438,111.340950 
	C406.006470,114.081055 407.800659,119.285904 405.415588,125.068489 
	C404.344482,127.665352 402.915588,130.154831 401.365936,132.506500 
	C396.872345,139.325638 397.896973,145.709335 402.578064,151.902405 
	C407.997131,159.071777 410.519714,167.170670 410.282379,176.124298 
	C410.180481,179.968842 409.420349,183.713654 407.996277,187.720551 
z"/>
<path fill="#000000" opacity="1.000000" stroke="none" 
	d="
M357.464844,116.072113 
	C359.063141,120.361275 358.090637,123.967491 356.163879,127.444153 
	C355.033722,129.483429 353.991577,131.578949 352.746094,133.545471 
	C349.080933,139.332550 349.596375,144.989395 353.494354,150.306686 
	C364.210754,164.925018 364.021393,180.047882 356.481415,195.939682 
	C352.592926,204.135300 346.276062,204.540009 340.927277,202.787720 
	C335.287781,200.940186 333.602051,194.453064 336.259796,187.512650 
	C337.561829,184.112610 339.479095,180.931366 339.786224,177.163712 
	C340.223541,171.798737 338.896332,167.089539 335.799347,162.592422 
	C327.175629,150.069962 326.679230,136.927032 333.606598,123.469597 
	C334.824799,121.103027 336.210876,118.817978 337.604126,116.547234 
	C342.924500,107.875999 350.959442,107.544922 357.464844,116.072113 
z"/>
<path fill="#000000" opacity="1.000000" stroke="none" 
	d="
M99.056587,213.649353 
	C91.852074,214.828049 88.292740,213.454681 85.882484,208.869843 
	C83.516052,204.368347 84.581581,199.079987 88.794090,194.789368 
	C93.099442,190.404175 97.403381,186.015640 101.796753,181.719376 
	C106.663231,176.960480 113.541908,176.595474 117.931519,180.737869 
	C122.476181,185.026596 122.517189,192.309998 117.423904,197.203979 
	C111.596046,202.803757 106.898193,209.694443 99.056587,213.649353 
z"/>
<path fill="#000000" opacity="1.000000" stroke="none" 
	d="
M221.566559,77.430161 
	C217.260040,70.915474 217.589752,66.102333 222.573669,60.980354 
	C226.870819,56.564182 231.226685,52.200779 235.672043,47.934338 
	C240.874283,42.941490 247.179611,42.650051 251.765564,47.020378 
	C256.309906,51.351051 256.340729,57.936749 251.522690,63.107483 
	C247.210114,67.735741 242.720123,72.214073 238.102203,76.538330 
	C232.854324,81.452499 228.010300,81.680328 221.566559,77.430161 
z"/>
<path fill="#000000" opacity="1.000000" stroke="none" 
	d="
M87.906723,46.918919 
	C94.273453,42.812748 98.413055,42.859478 103.497513,47.586632 
	C108.728752,52.450233 113.748383,57.570122 118.543610,62.864952 
	C122.405403,67.129105 122.144157,73.666290 118.477974,77.435783 
	C114.794472,81.223053 107.056595,81.556618 102.986313,77.753136 
	C97.762840,72.872055 92.665390,67.836975 87.781021,62.617996 
	C83.576225,58.125160 83.707809,52.923347 87.906723,46.918919 
z"/>
<path fill="#000000" opacity="1.000000" stroke="none" 
	d="
M255.188263,203.934784 
	C254.733002,209.155060 252.241013,212.381088 247.609756,213.777359 
	C243.083145,215.142075 239.129379,214.113281 235.781860,210.684158 
	C231.260849,206.052963 226.592178,201.563919 222.132690,196.875214 
	C217.594940,192.104202 217.373123,185.391068 221.403610,181.208908 
	C225.601822,176.852753 232.153641,176.681580 237.004364,181.221085 
	C242.209869,186.092575 247.132523,191.269577 252.108261,196.381714 
	C254.008591,198.334137 255.154251,200.716141 255.188263,203.934784 
z"/>
<path fill="#000000" opacity="1.000000" stroke="none" 
	d="
M162.123840,241.845901 
	C160.171936,239.592850 159.274918,237.267792 159.181076,234.725021 
	C158.899445,227.093445 158.491135,219.446823 159.593948,211.845795 
	C160.476990,205.759460 164.617569,202.421585 170.615677,202.774872 
	C176.160492,203.101456 180.128693,207.053085 180.273483,212.826492 
	C180.448349,219.798462 180.298019,226.777985 180.354706,233.753708 
	C180.391205,238.244736 179.050293,242.022232 174.779037,244.046799 
	C170.302734,246.168549 166.066971,245.679001 162.123840,241.845901 
z"/>
<path fill="#000000" opacity="1.000000" stroke="none" 
	d="
M84.712135,140.326477 
	C77.598381,140.328201 70.947510,140.409821 64.299911,140.297379 
	C58.013039,140.191010 53.806484,136.095154 53.650734,130.183914 
	C53.485569,123.915482 56.936043,120.275589 63.611557,119.554832 
	C70.744141,118.784737 77.900436,118.941628 85.029083,119.266037 
	C91.735786,119.571251 95.960922,123.898071 96.077888,129.833084 
	C96.195633,135.807556 92.198273,139.653503 84.712135,140.326477 
z"/>
<path fill="#000000" opacity="1.000000" stroke="none" 
	d="
M268.942810,118.708832 
	C271.595856,118.736725 273.773712,118.617302 275.920898,118.820885 
	C281.642273,119.363358 285.246643,123.073051 285.478241,128.465622 
	C285.737885,134.511490 282.869507,138.731979 277.052582,139.526016 
	C268.800720,140.652420 260.430756,140.617844 252.179367,139.555832 
	C246.244827,138.791992 243.397476,134.653610 243.619125,128.608124 
	C243.825104,122.989944 247.001678,119.400429 252.980560,118.917641 
	C258.110382,118.503410 263.293854,118.752846 268.942810,118.708832 
z"/>
<path fill="#000000" opacity="1.000000" stroke="none" 
	d="
M172.253906,55.514328 
	C164.333618,56.355190 160.349899,53.255199 159.591797,46.045204 
	C158.771423,38.242714 158.492157,30.431257 159.576920,22.636007 
	C160.438492,16.444807 164.308060,13.387440 170.634430,13.696845 
	C176.294922,13.973683 180.185287,17.837782 180.295349,23.655954 
	C180.430771,30.813873 180.406830,37.977478 180.301086,45.136395 
	C180.224457,50.324097 177.979858,54.070679 172.253906,55.514328 
z"/>
</svg>